<?xml version="1.0" encoding="UTF-8" standalone="no"?>
<!-- Created with Inkscape (http://www.inkscape.org/) -->

<svg
   xmlns:osb="http://www.openswatchbook.org/uri/2009/osb"
   xmlns:dc="http://purl.org/dc/elements/1.1/"
   xmlns:cc="http://creativecommons.org/ns#"
   xmlns:rdf="http://www.w3.org/1999/02/22-rdf-syntax-ns#"
   xmlns:svg="http://www.w3.org/2000/svg"
   xmlns="http://www.w3.org/2000/svg"
   xmlns:sodipodi="http://sodipodi.sourceforge.net/DTD/sodipodi-0.dtd"
   xmlns:inkscape="http://www.inkscape.org/namespaces/inkscape"
   width="37.041668mm"
   height="37.570835mm"
   viewBox="0 0 37.041668 37.570835"
   version="1.1"
   id="svg823"
   sodipodi:docname="polaris_logo_blue.svg"
   inkscape:version="0.92.3 (2405546, 2018-03-11)">
  <defs
     id="defs817">
    <linearGradient
       id="linearGradient3799"
       osb:paint="solid">
      <stop
         style="stop-color:#07096e;stop-opacity:1;"
         offset="0"
         id="stop3797" />
    </linearGradient>
  </defs>
  <sodipodi:namedview
     id="base"
     pagecolor="#ffffff"
     bordercolor="#666666"
     borderopacity="1.0"
     inkscape:pageopacity="0.0"
     inkscape:pageshadow="2"
     inkscape:zoom="4"
     inkscape:cx="49.077406"
     inkscape:cy="58.322685"
     inkscape:document-units="mm"
     inkscape:current-layer="layer1"
     showgrid="false"
     inkscape:window-width="1851"
     inkscape:window-height="1025"
     inkscape:window-x="69"
     inkscape:window-y="27"
     inkscape:window-maximized="1"
     fit-margin-top="0"
     fit-margin-left="0"
     fit-margin-right="0"
     fit-margin-bottom="0" />
  <metadata
     id="metadata820">
    <rdf:RDF>
      <cc:Work
         rdf:about="">
        <dc:format>image/svg+xml</dc:format>
        <dc:type
           rdf:resource="http://purl.org/dc/dcmitype/StillImage" />
        <dc:title></dc:title>
      </cc:Work>
    </rdf:RDF>
  </metadata>
  <g
     inkscape:label="Capa 1"
     inkscape:groupmode="layer"
     id="layer1"
     transform="translate(83.910713,-130.04791)"
     style="display:inline">
    <path
       style="fill:none;stroke:#000000;stroke-width:0.04;stroke-linecap:butt;stroke-linejoin:miter;stroke-miterlimit:4;stroke-dasharray:none;stroke-opacity:1"
       d="m -80.532551,152.18078 c 0,0 2.137749,-0.0232 2.816091,-0.0829 1.077245,-0.0948 2.326355,-0.63301 2.439548,-2.16776 0.186062,-2.52277 -2.484522,-2.81644 -2.484522,-2.81644 -1.809935,-0.1205 -3.649306,0.002 -5.435324,-0.005 l 0.394442,0.55933 -0.06896,9.05973 -0.279183,0.27226 3.054351,-0.0376 c -0.31603,-0.10086 -0.396113,-0.4059 -0.396113,-0.4059 z"
       id="path1960"
       inkscape:connector-curvature="0"
       sodipodi:nodetypes="csscccccccc"
       inkscape:export-xdpi="490.08881"
       inkscape:export-ydpi="490.08881" />
    <path
       style="fill:none;stroke:#000000;stroke-width:0.04;stroke-linecap:butt;stroke-linejoin:miter;stroke-miterlimit:4;stroke-dasharray:none;stroke-opacity:1"
       d="m -78.115508,151.60683 c 0.386581,-0.24875 0.639915,-0.84814 0.640362,-1.46603 -0.01507,-0.91087 0.01244,-2.37612 -0.77047,-2.58616 -0.464371,-0.15939 -2.192443,-0.0631 -2.192443,-0.0631 0.0088,0.89951 -0.07086,3.95774 -0.05288,4.33744 0.826127,0.0556 1.737328,0.16098 2.33366,-0.19707 0.04177,-0.0251 0.04177,-0.0251 0.04177,-0.0251 z"
       id="path1962"
       inkscape:connector-curvature="0"
       sodipodi:nodetypes="cccccscc"
       inkscape:export-xdpi="490.08881"
       inkscape:export-ydpi="490.08881" />
    <path
       style="fill:none;stroke:#07096e;stroke-width:0.095;stroke-linecap:butt;stroke-linejoin:miter;stroke-miterlimit:4;stroke-dasharray:none;stroke-opacity:1"
       d="m -74.255601,152.11711 c 1.561522,-0.0451 3.034116,0.97647 3.031838,2.43048 -0.0025,1.60713 -1.770633,2.45093 -3.081951,2.4639 -1.311318,0.013 -3.223938,-1.05082 -3.207234,-2.48895 0.0167,-1.43813 1.565197,-2.35652 3.257347,-2.40543 z"
       id="path1966"
       inkscape:connector-curvature="0"
       sodipodi:nodetypes="sszzs"
       inkscape:export-xdpi="490.08881"
       inkscape:export-ydpi="490.08881" />
    <path
       style="fill:none;stroke:#07096e;stroke-width:0.04;stroke-linecap:butt;stroke-linejoin:miter;stroke-miterlimit:4;stroke-dasharray:none;stroke-opacity:1"
       d="m -56.200062,157.88939 c 0,0 -0.05299,1.24717 0.32025,1.60277 1.089504,1.03799 5.216539,2.34653 6.560442,-0.74531 0.80911,-1.86147 -1.450191,-3.1291 -2.539665,-4.11738 -0.658714,-0.5114 -1.872246,-1.451 -2.018105,-2.07113 -0.07273,-0.30919 -0.09841,-1.2743 1.194684,-1.82736 0.829029,-0.35458 1.816689,-0.2093 2.341783,-0.0583 0.573867,0.16505 1.093188,0.70939 1.146411,0.77782 l 0.005,-1.01353 0.176114,0.008 -0.0281,1.60046 c 0,0 -0.382342,-0.53294 -0.866494,-0.80405 -0.441739,-0.24736 -0.627209,-0.23464 -0.897739,-0.26837 -0.555254,-0.0692 -1.310436,0.21284 -1.292418,0.98501 0.01162,0.49814 0.848585,1.1575 0.848585,1.1575 0,0 2.420948,1.36723 2.93551,2.559 0.392986,0.91018 0.275101,2.14224 -0.114903,2.97197 -0.763429,1.36507 -1.943912,2.01166 -3.215093,2.17847 -0.841541,0.11044 -1.711743,0.0496 -2.534384,-0.14885 -0.695078,-0.16772 -1.963108,-0.86462 -1.963108,-0.86462 l 0.0118,0.35435 -0.389789,3e-5 -0.04725,-2.27967 z"
       id="path1970"
       inkscape:connector-curvature="0"
       sodipodi:nodetypes="csscsssccccssscacsaccccc"
       inkscape:export-xdpi="490.08881"
       inkscape:export-ydpi="490.08881" />
    <path
       style="fill:none;fill-opacity:1;stroke:#07096e;stroke-width:0.095;stroke-linecap:round;stroke-linejoin:round;stroke-miterlimit:4;stroke-dasharray:none;stroke-opacity:1"
       d="m -74.921967,152.55876 c 0.168277,-0.28396 1.177894,-0.25104 1.299294,0 0.267079,0.55229 0.212552,3.87653 0,4.02781 -0.333267,0.23719 -1.054776,0.22391 -1.299294,0 -0.208475,-0.19091 -0.252852,-3.60113 0,-4.02781 z"
       id="rect1996"
       inkscape:connector-curvature="0"
       sodipodi:nodetypes="sssss"
       inkscape:export-xdpi="490.08881"
       inkscape:export-ydpi="490.08881" />
    <path
       style="fill:none;fill-opacity:1;stroke:#07096e;stroke-width:0.095;stroke-linecap:round;stroke-linejoin:round;stroke-miterlimit:4;stroke-dasharray:none;stroke-opacity:1"
       d="m -70.698253,149.96363 c 0,0 0.445688,0.0621 0.578638,-0.0918 0.153952,-0.17822 0.19928,-0.63399 -0.0367,-0.81914 -0.204182,-0.16019 -0.624906,0.0191 -0.624906,0.0191 l 0.0083,-0.28916 3.078383,-1.71553 c 0.02978,-1.36011 0.04759,-2.14051 0.504907,-3.07207 0.286641,-0.58389 1.117139,-0.83878 1.329852,-1.42803 0.376386,-1.04267 -0.01559,-1.83697 0.12358,-2.39804 0.03535,-0.1425 0.196278,-0.24212 0.196278,-0.24212 -0.0076,0.0172 0.09086,1.28207 0.215191,1.91089 0.14345,0.72552 0.290252,0.96244 0.179301,1.42978 -0.07735,0.32578 -0.416764,0.53135 -0.559668,0.83417 -0.127738,0.27068 -0.257548,0.86019 -0.257548,0.86019 0,0 -0.222288,1.95363 0.218007,2.6084 0.245984,0.36581 1.022541,0.20632 1.022541,0.20632 0,0 -0.548148,0.5481 -0.672579,0.74603 -0.0686,0.10912 -0.0711,0.58269 -0.211788,0.88731 -0.174972,0.37885 -0.473223,0.59509 -0.473223,0.59509 l -1.796586,0.0906 c 0,0 0.01676,4.95891 0.04012,5.96004 0,0 -0.02403,0.33638 0.156603,0.59539 0.121598,0.17436 0.367914,0.25931 0.65611,0.38803 l -3.771786,0.003 0.559569,-0.41151 0.09837,-6.20029 -0.559037,-0.0195 z"
       id="rect2023"
       inkscape:connector-curvature="0"
       sodipodi:nodetypes="csscccasscsaacscssccsscccccc"
       inkscape:export-xdpi="490.08881"
       inkscape:export-ydpi="490.08881" />
    <path
       style="fill:none;fill-opacity:1;stroke:#07096e;stroke-width:0.05;stroke-linecap:round;stroke-linejoin:round;stroke-miterlimit:4;stroke-dasharray:none;stroke-opacity:1"
       d="m -61.925006,157.0051 c 0,0 -2.229624,0.003 -2.425449,0.001 l 0.120197,-0.28005 c 0,0 -0.486568,0.10686 -0.734187,0.12248 -0.291993,0.0184 -0.572502,0.0282 -0.877041,-0.0345 -0.287371,-0.0591 -0.760216,-0.20293 -1.083458,-0.52674 -0.338477,-0.33907 -0.503628,-0.94805 -0.388274,-1.42748 0.07809,-0.32456 0.387841,-0.59254 0.673647,-0.74102 0.341579,-0.17746 0.910536,-0.23863 1.364561,-0.36257 0.222492,-0.0607 0.67119,-0.0951 0.892655,-0.32075 0.213431,-0.21747 0.295399,-0.34558 0.29293,-0.86592 -0.0014,-0.30444 -0.361569,-0.7476 -0.999436,-0.70021 -0.206769,0.0154 -0.587202,0.0282 -0.70302,0.0983 -0.09144,0.0554 -0.272455,0.0868 -0.215831,0.43244 0.03448,0.21045 0.453272,0.53908 0.08568,0.94192 -0.24573,0.2693 -0.973468,0.22958 -1.202782,-0.10101 -0.197883,-0.28528 -0.07427,-0.68209 0.281945,-1.00269 0.53129,-0.47817 1.785756,-0.64588 2.521932,-0.50646 0.810812,0.15355 1.573364,0.53094 1.779691,1.27391 0.127873,0.46046 0.01072,1.28966 0.123735,2.5756 0.01634,0.18593 0.07679,0.51957 0.176785,0.79564 0.106002,0.29265 0.251386,0.52279 0.251386,0.52279 z"
       id="path2026"
       inkscape:connector-curvature="0"
       sodipodi:nodetypes="cccassassasssssassssscc"
       inkscape:export-xdpi="490.08881"
       inkscape:export-ydpi="490.08881" />
    <path
       style="fill:none;fill-opacity:1;stroke:#07096e;stroke-width:0.05;stroke-linecap:round;stroke-linejoin:round;stroke-miterlimit:4;stroke-dasharray:none;stroke-opacity:1"
       d="m -63.957376,155.29094 c -0.04176,0.70649 -0.365473,0.7969 -1.060726,0.80181 -1.012664,0.007 -1.135091,-0.29728 -1.177656,-0.95215 -0.02232,-0.34341 0.03266,-0.698 0.259446,-0.91844 0.218935,-0.21281 0.598838,-0.29521 1.177128,-0.4179 0.28892,-0.0613 0.676807,-0.21752 0.676807,-0.21752 0.130269,1.14356 0.125,1.3734 0.125001,1.7042 z"
       id="path2029"
       inkscape:connector-curvature="0"
       sodipodi:nodetypes="csssscc"
       inkscape:export-xdpi="490.08881"
       inkscape:export-ydpi="490.08881" />
    <g
       id="g2040"
       inkscape:export-xdpi="490.08881"
       inkscape:export-ydpi="490.08881">
      <path
         style="fill:none;fill-opacity:1;stroke:#000000;stroke-width:0.18897638;stroke-linecap:round;stroke-linejoin:round;stroke-miterlimit:4;stroke-dasharray:none;stroke-opacity:1"
         d="m 92.685311,84.015012 c -0.357142,-0.354336 -1.00674,-2.290124 -1.00674,-2.290124 l -7.179408,4.535994 1.128069,0.588727 -0.159705,13.740101 -1.145145,1.07948 9.59072,0.0884 c -0.732364,-0.18471 -1.448364,-0.45672 -1.903425,-1.16188 -0.357565,-0.55409 -0.486713,-1.376705 -0.574708,-2.078662 -0.207037,-1.651583 -0.147737,-9.635769 -0.118831,-12.16811 l 1.684394,-0.832739 c -0.08165,1.373079 0.459463,2.167761 1.233863,2.858811 0.670914,0.598702 1.68321,0.8082 2.582011,0.78125 0.822581,-0.02466 1.741347,-0.266178 2.315966,-0.855296 0.61358,-0.629063 0.928308,-1.619606 0.851391,-2.494983 -0.0713,-0.811479 -0.467513,-1.745776 -1.180493,-2.139783 -1.787805,-0.987977 -4.268717,-0.82273 -6.117959,0.348814 z"
         transform="matrix(0.26458333,0,0,0.26458333,-83.910713,130.04791)"
         id="rect2032"
         inkscape:connector-curvature="0"
         sodipodi:nodetypes="cccccccssccaaaaac" />
    </g>
    <path
       style="fill:none;fill-opacity:1;stroke:#07096e;stroke-width:0.35905513;stroke-linecap:round;stroke-linejoin:round;stroke-miterlimit:4;stroke-dasharray:none;stroke-opacity:1"
       d="m 105.84766,73.5625 c -2.14751,-0.108321 -4.59058,1.41857 -4.59058,2.917483 0,0.05545 -2.60042,0.431725 -3.913453,0.453483 -1.46511,0.02428 -3.324393,-0.43421 -4.38108,-0.36105 -2.232177,0.15455 -5.430802,1.195226 -6.992533,0.910048 -0.978536,-0.203875 -0.302332,-0.715553 -1.644731,-1.090703 -1.039577,-0.290523 -3.084419,-0.157996 -3.685576,-0.713722 -1.237654,-1.144121 -1.716328,-4.680506 -1.991914,-4.647524 -0.207638,0.0048 0.01517,0.727665 0.171738,1.438135 0.174312,0.791004 0.263891,1.573771 0.308841,2.047096 0.03596,0.378703 0.01811,1.197212 -0.294109,1.655581 -0.358215,0.52589 -0.592764,1.017038 -1.209869,1.259224 -3.864448,1.516624 -2.306318,1.574048 -2.306318,1.574048 -0.35382,-0.01287 3.289399,1.271398 5.922377,1.397113 1.697552,0.08105 5.309772,-0.636419 7.973861,-0.858173 3.484507,-0.290044 6.849308,-1.273842 10.471493,-0.617306 0.668683,0.121201 1.336413,1.014715 1.735153,1.726596 0.49645,0.886328 0.0353,1.634453 0.70455,2.965122 0.20631,0.410189 1.79857,1.18415 1.79857,1.18415 l -2.20533,1.670553 1.5957,1.240235 -0.0535,12.573241 -1.61859,1.42251 10.24246,-0.0895 c -0.42176,-0.0838 -1.08131,-0.40766 -1.45871,-1.0308 -0.1654,-0.2731 -0.25074,-0.636179 -0.32442,-0.942919 -0.31085,-1.294112 -0.27937,-18.717697 -0.27937,-18.717697 l -3.6426,2.751953 c 0,0 -1.01592,-0.646465 -1.10656,-1.177371 -0.10749,-0.629513 -0.18888,-1.539896 0.77455,-1.752316 2.15411,-0.447387 4.46455,-2.000188 4.41992,-3.660156 0,-1.659931 -1.37401,-3.393549 -4.41992,-3.527344 z"
       id="path2045"
       inkscape:connector-curvature="0"
       sodipodi:nodetypes="csascsscsssscsasasccccccssccacccc"
       inkscape:export-xdpi="490.08881"
       inkscape:export-ydpi="490.08881"
       transform="matrix(0.26458333,0,0,0.26458333,-83.910713,130.04791)" />
    <path
       style="fill:#07096e;fill-opacity:1;stroke:#07096e;stroke-width:0.04;stroke-linecap:round;stroke-linejoin:round;stroke-miterlimit:4;stroke-dasharray:none;stroke-opacity:1"
       d="m -64.968713,136.59702 c 0.30838,0.0947 0.54473,0.40511 0.67935,0.66464 0.187645,0.36176 0.118321,0.62549 -0.03425,0.87391 -0.142178,0.23149 -0.656211,0.46012 -0.711919,0.39672 -0.102174,-0.11628 0.250846,-0.5871 0.25104,-0.89786 2.08e-4,-0.33293 -0.260583,-0.65511 -0.267745,-0.96224 -8.74e-4,-0.0375 0.04608,-0.076 0.08352,-0.0752 z"
       id="rect2053"
       inkscape:connector-curvature="0"
       sodipodi:nodetypes="csasasac"
       inkscape:export-xdpi="490.08881"
       inkscape:export-ydpi="490.08881" />
    <path
       style="fill:#07096e;fill-opacity:1;stroke:#07096e;stroke-width:0.04;stroke-linecap:round;stroke-linejoin:round;stroke-miterlimit:4;stroke-dasharray:none;stroke-opacity:1"
       d="m -67.246771,136.49138 c 0.07744,-0.20406 1.260814,-0.23127 1.74856,0.57125 0.300587,0.49459 -0.269644,1.45195 -0.269644,1.45195 -0.351452,-0.21901 -0.200464,-0.87224 -0.457793,-1.22353 -0.255482,-0.34876 -1.073674,-0.66121 -1.021123,-0.79967 z"
       id="rect2055"
       inkscape:connector-curvature="0"
       sodipodi:nodetypes="sscas"
       inkscape:export-xdpi="490.08881"
       inkscape:export-ydpi="490.08881" />
    <path
       style="fill:#07096e;fill-opacity:1;stroke:#07096e;stroke-width:0.04;stroke-linecap:round;stroke-linejoin:round;stroke-miterlimit:4;stroke-dasharray:none;stroke-opacity:1"
       d="m -67.703692,137.02119 c 0.487632,0.22303 1.039444,0.61876 1.030432,1.23529 0,0 -0.487866,-0.41282 -0.781696,-0.52116 -0.200549,-0.0739 -0.506768,-0.0678 -0.636744,-0.0758 -0.124403,-0.008 -0.514003,0.13373 -1.099169,0.28648 -0.276191,0.0721 -0.531855,0.0924 -0.796438,0.0623 -0.236935,-0.027 -0.584654,-0.056 -0.682471,-0.21452 0.738719,-0.94883 1.83542,-1.27108 2.966086,-0.77256 z"
       id="rect2058"
       inkscape:connector-curvature="0"
       sodipodi:nodetypes="ccassacc"
       inkscape:export-xdpi="490.08881"
       inkscape:export-ydpi="490.08881" />
    <path
       style="fill:none;fill-opacity:1;stroke:#07096e;stroke-width:0.04;stroke-linecap:round;stroke-linejoin:round;stroke-miterlimit:4;stroke-dasharray:none;stroke-opacity:1"
       d="m -71.273875,138.79539 c 0,0 0.199981,0.22746 0.493846,0.28706 0.276334,0.056 0.612211,0.13734 0.901481,0.054 0.356925,-0.10282 0.553212,-0.4794 0.906411,-0.64817 0.451662,-0.21583 0.658842,-0.21393 0.98864,-0.16162 0.214178,0.034 0.39588,0.18085 0.57805,0.2985 0.193483,0.12495 0.54152,0.42918 0.54152,0.42918 0,0 -0.436257,0.0149 -0.626862,0.10779 -0.283576,0.13815 -0.701134,0.63555 -0.701134,0.63555 0,0 -0.407602,0.42051 -0.695849,0.53342 -0.239711,0.0939 -0.57317,0.19409 -0.866645,0.17052 -0.425897,-0.0342 -0.915682,-0.12794 -1.202075,-0.44502 -0.283339,-0.31369 -0.26406,-0.80844 -0.317383,-1.22777 -0.0014,-0.0111 0,-0.0335 0,-0.0335 z"
       id="rect2062"
       inkscape:connector-curvature="0"
       sodipodi:nodetypes="csasaacacsaaacc"
       inkscape:export-xdpi="490.08881"
       inkscape:export-ydpi="490.08881" />
    <path
       style="fill:none;fill-opacity:1;stroke:#07096e;stroke-width:0.095;stroke-linecap:round;stroke-linejoin:round;stroke-miterlimit:4;stroke-dasharray:none;stroke-opacity:1"
       d="m -71.591677,140.4008 c 0,0 0.3335,0.37514 0.53673,0.51865 0.187995,0.13275 0.394126,0.255 0.618226,0.30739 0.533041,0.12461 1.122204,0.13456 1.642233,-0.003 0.575784,-0.15283 1.315775,-0.73931 1.922627,-1.35228 0.540083,-0.54552 1.064954,-0.49943 1.064954,-0.49943 0,0 -0.701697,0.44568 -0.879406,0.83457 -0.122143,0.26729 -0.196549,0.49214 -0.207518,0.75182 -0.01769,0.41896 0.04941,0.88841 -0.253871,1.4723 -0.534016,1.02812 -1.134426,1.44098 -1.809755,1.91818 -0.115126,0.0813 -0.15946,-0.32669 -0.09308,-0.69778 0.05202,-0.29081 0.159072,-0.45786 0.141575,-0.69297 -0.0077,-0.1032 -0.0329,-0.21886 -0.106485,-0.29163 -0.105925,-0.10476 -0.23157,-0.14171 -0.421496,-0.14865 -0.197531,-0.007 -0.634712,0.0864 -1.287784,-0.12253 -0.297047,-0.095 -0.583394,-0.34112 -0.731867,-0.62566 -0.212051,-0.40639 -0.135083,-1.36851 -0.135083,-1.36851 z"
       id="rect2065"
       inkscape:connector-curvature="0"
       sodipodi:nodetypes="caasscsssssaassacc"
       inkscape:export-xdpi="490.08881"
       inkscape:export-ydpi="490.08881" />
    <path
       style="fill:#ffffff;fill-opacity:0;stroke:#07096e;stroke-width:0.19;stroke-linecap:butt;stroke-linejoin:miter;stroke-miterlimit:4;stroke-dasharray:none;stroke-opacity:1"
       d="m -66.476561,150.58619 c -0.235357,0.38729 -0.63292,0.56915 -0.761131,0.79802 0.06762,0.13039 2.319817,-0.0355 2.319817,-0.0355 l 0.935065,-0.3975"
       id="path2068"
       inkscape:connector-curvature="0"
       sodipodi:nodetypes="cccc"
       inkscape:export-xdpi="490.08881"
       inkscape:export-ydpi="490.08881" />
    <path
       style="fill:none;stroke:#07096e;stroke-width:0.23;stroke-linecap:butt;stroke-linejoin:miter;stroke-miterlimit:4;stroke-dasharray:none;stroke-opacity:1"
       d="m -65.539921,139.92684 c 0,0 0.181659,0.003 0.247287,-0.007 0.175338,-0.37767 0.262141,-0.39061 0.40817,-0.40644 0.248778,-0.027 1.637026,1.54515 1.637026,1.54515 0,0 0.3223,0.31794 0.375848,0.72664 -0.05708,1.25374 -0.823277,1.8008 -0.709935,2.64764 0.461584,3.44873 2.539061,4.44336 2.539061,4.44336 0.926424,0.63427 2.692526,0.90483 3.279063,0.6832 1.307047,-0.49389 1.424046,-1.76147 1.424046,-1.76147 0.333221,0.57604 0.660219,0.52675 0.723297,0.90872 0.04644,0.28121 -0.289129,0.80468 -0.289129,0.80468"
       id="path2070"
       inkscape:connector-curvature="0"
       sodipodi:nodetypes="ccsccssscac"
       inkscape:export-xdpi="490.08881"
       inkscape:export-ydpi="490.08881" />
    <path
       style="fill:none;stroke:#000000;stroke-width:0.21657127px;stroke-linecap:butt;stroke-linejoin:miter;stroke-opacity:1"
       d="m -64.169882,141.25442 c 0.03625,0.11404 0.194842,0.30149 0.194842,0.30149 0,0 0.140343,-0.10301 0.157241,-0.18117 0.01859,-0.086 -0.01571,-0.18816 -0.0752,-0.25295 -0.06954,-0.0757 -0.287136,-0.1128 -0.287136,-0.1128 0,0 -0.01455,0.1674 0.01025,0.24543 z"
       id="path2072"
       inkscape:connector-curvature="0"
       sodipodi:nodetypes="acaaca"
       inkscape:export-xdpi="490.08881"
       inkscape:export-ydpi="490.08881" />
    <path
       style="fill:#000000;fill-opacity:0;stroke:#07096e;stroke-width:0.04;stroke-linecap:butt;stroke-linejoin:miter;stroke-miterlimit:4;stroke-dasharray:none;stroke-opacity:1"
       d="m -66.216703,151.4012 c 0,0 -0.473231,-0.009 -0.598361,-0.16451 -0.04449,-0.0551 0.338503,-0.6505 0.338503,-0.6505"
       id="path2083"
       inkscape:connector-curvature="0"
       sodipodi:nodetypes="csc"
       inkscape:export-xdpi="490.08881"
       inkscape:export-ydpi="490.08881" />
    <path
       style="fill:#07096e;fill-opacity:1;stroke:#07096e;stroke-width:0.15000001;stroke-linecap:butt;stroke-linejoin:miter;stroke-miterlimit:4;stroke-dasharray:none;stroke-opacity:1"
       d="m -66.216703,151.4012 c 0,0 0.300158,-0.0636 0.412082,-0.2225 0.0456,0.0322 -0.0016,0.13095 0.03248,0.16351 0.04236,0.0404 0.368672,0.0387 0.368672,0.0387"
       id="path2085"
       inkscape:connector-curvature="0"
       sodipodi:nodetypes="ccsc"
       inkscape:export-xdpi="490.08881"
       inkscape:export-ydpi="490.08881" />
    <path
       style="fill:none;stroke:#07096e;stroke-width:0.19;stroke-linecap:butt;stroke-linejoin:miter;stroke-miterlimit:4;stroke-dasharray:none;stroke-opacity:1"
       d="m -66.476561,150.58619 c 0.396874,-0.58117 0.396874,-0.58117 0.396874,-0.58117"
       id="path2087"
       inkscape:connector-curvature="0"
       inkscape:export-xdpi="490.08881"
       inkscape:export-ydpi="490.08881" />
    <path
       style="fill:#07096e;fill-opacity:1;stroke:#07096e;stroke-width:0.37417322;stroke-linecap:round;stroke-linejoin:round;stroke-miterlimit:4;stroke-dasharray:none;stroke-opacity:1"
       d="M 3.6509683,101.3116 4.0450078,100.90505 4.1748163,86.030347 C 4.2462109,77.849261 4.3049276,70.109348 4.3052976,68.830543 l 6.728e-4,-2.325102 -0.6754758,-0.941416 -0.6754758,-0.941416 6.7067259,-0.09475 c 3.6886993,-0.05211 8.2536003,-0.06128 10.1442253,-0.02037 3.08817,0.06682 3.559115,0.10541 4.634222,0.379728 3.408918,0.869798 5.910386,2.666669 7.104831,5.103589 0.750046,1.530252 0.935004,2.378327 0.935574,4.289835 8.75e-4,2.728981 -0.630584,4.39109 -2.310487,6.08218 -0.794141,0.799428 -1.165162,1.061531 -2.251243,1.590357 -2.346377,1.142478 -3.794009,1.339933 -10.78916,1.471628 l -4.488763,0.08451 0.07645,8.413793 c 0.05494,6.0471 0.117609,8.493781 0.222787,8.698161 0.08049,0.15641 0.281909,0.42997 0.447604,0.60793 l 0.301263,0.32355 -3.472786,0.0824 c -1.9100327,0.0453 -4.2572584,0.0826 -5.2160574,0.0827 l -1.7432709,2.4e-4 z M 20.140034,82.337629 c 1.752779,-0.448285 2.671014,-1.160284 3.435705,-2.664044 0.65005,-1.278316 0.855245,-2.374733 0.855126,-4.569187 -3.07e-4,-5.746812 -0.883032,-8.398981 -3.023696,-9.084769 -0.533324,-0.170857 -1.321624,-0.223976 -4.012997,-0.270415 -1.842115,-0.03179 -3.59132,-0.0215 -3.887123,0.02286 l -0.537824,0.08065 -0.09056,8.257106 c -0.04981,4.541409 -0.06979,8.277884 -0.04439,8.30328 0.0254,0.0254 0.802854,0.09985 1.727686,0.165448 2.19424,0.155642 4.400003,0.06037 5.578077,-0.24093 z"
       id="path2101"
       inkscape:connector-curvature="0"
       inkscape:export-xdpi="490.08881"
       inkscape:export-ydpi="490.08881"
       transform="matrix(0.26458333,0,0,0.26458333,-83.910713,130.04791)" />
    <path
       style="fill:#07096e;fill-opacity:1;stroke:#07096e;stroke-width:0.20787401;stroke-linecap:round;stroke-linejoin:round;stroke-miterlimit:4;stroke-dasharray:none;stroke-opacity:1"
       d="m 34.05597,101.52277 c -2.192218,-0.47351 -4.311875,-1.4227 -5.974112,-2.675236 -3.572409,-2.691892 -4.632606,-6.071355 -2.966612,-9.45632 2.298765,-4.670628 10.402608,-7.168333 16.262131,-5.01219 2.398781,0.882685 4.55156,2.720582 5.543696,4.732832 2.383487,4.834187 -0.285035,9.813998 -6.365103,11.878114 -2.089611,0.7094 -4.69404,0.92288 -6.5,0.5328 z m 4.338373,-0.79963 c 0.50939,-0.22004 0.678705,-0.36662 0.778912,-0.67433 0.290089,-0.890764 0.403284,-2.342113 0.470208,-6.02886 0.07296,-4.01894 -0.06022,-6.800505 -0.394385,-8.237539 -0.283876,-1.220762 -0.900756,-1.562873 -2.818108,-1.562873 -1.917031,0 -2.533833,0.341997 -2.818695,1.562873 -0.589443,2.526268 -0.538584,12.343699 0.07384,14.253119 0.234093,0.72986 1.219932,1.0689 2.932357,1.00846 0.823245,-0.029 1.299582,-0.11511 1.775873,-0.32085 z"
       id="path2103"
       inkscape:connector-curvature="0"
       inkscape:export-xdpi="490.08881"
       inkscape:export-ydpi="490.08881"
       transform="matrix(0.26458333,0,0,0.26458333,-83.910713,130.04791)" />
    <path
       style="fill:#07096e;fill-opacity:1;stroke:#07096e;stroke-width:0.35905513;stroke-linecap:round;stroke-linejoin:round;stroke-miterlimit:4;stroke-dasharray:none;stroke-opacity:1"
       d="m 50.18097,101.80475 c 0,-0.0211 0.365625,-0.30685 0.8125,-0.63497 0.446875,-0.32812 0.815155,-0.60615 0.8184,-0.61786 0.02128,-0.0767 0.360551,-20.494489 0.364363,-21.927526 l 0.0047,-1.78125 h -1.0625 -1.0625 V 76.17244 75.501735 l 0.87822,-0.06284 c 0.948131,-0.06784 1.243772,-0.235629 1.587981,-0.901257 0.262338,-0.507305 0.25685,-1.77623 -0.0099,-2.287071 -0.355335,-0.680509 -0.705519,-0.828026 -1.773826,-0.74723 l -0.932484,0.07052 v -0.334448 c 0,-0.311346 0.400393,-0.557582 5.797049,-3.565093 l 5.797048,-3.230648 0.08342,-2.144016 c 0.141473,-3.636009 0.337731,-5.170052 0.905975,-7.081516 0.714037,-2.401886 1.396164,-3.405114 3.355532,-4.935101 0.55502,-0.433391 1.327992,-1.132394 1.717713,-1.55334 0.585571,-0.632487 0.76159,-0.933208 1.013902,-1.732208 0.522767,-1.655448 0.623307,-3.060696 0.397227,-5.551985 -0.205312,-2.262413 -0.148692,-3.200112 0.215197,-3.564001 0.16393,-0.16393 0.195025,-0.08627 0.267993,0.669344 0.396885,4.109906 0.635385,5.694497 1.266903,8.417291 0.535193,2.307486 0.359425,3.176972 -0.947585,4.6875 -1.314042,1.518656 -1.924048,3.454724 -2.130141,6.760744 -0.154609,2.480145 -0.01542,4.807975 0.379523,6.347031 0.297202,1.158186 0.618165,1.724616 1.170762,2.06614 0.496526,0.30687 1.73964,0.518888 2.473965,0.421947 l 0.548016,-0.07235 -0.819858,0.871509 c -1.425172,1.514955 -1.498209,1.64505 -1.761645,3.137855 -0.286495,1.623468 -0.735,2.605701 -1.586377,3.474188 l -0.619615,0.632069 -3.356252,0.157065 c -1.845939,0.08639 -3.404345,0.204424 -3.463125,0.262304 -0.05916,0.05826 -0.0575,5.369885 0.0037,11.898366 l 0.110586,11.793128 0.289096,0.647338 c 0.338407,0.75775 0.488727,0.90939 1.398628,1.41091 l 0.67985,0.37472 -6.40625,0.002 c -3.523437,0.001 -6.40625,-0.015 -6.40625,-0.0361 z"
       id="path2105"
       inkscape:connector-curvature="0"
       inkscape:export-xdpi="490.08881"
       inkscape:export-ydpi="490.08881"
       transform="matrix(0.26458333,0,0,0.26458333,-83.910713,130.04791)" />
    <path
       style="fill:#07096e;fill-opacity:1;stroke:#07096e;stroke-width:0.35905513;stroke-linecap:round;stroke-linejoin:round;stroke-miterlimit:4;stroke-dasharray:none;stroke-opacity:1"
       d="m 74.368434,101.26145 c 0.10495,-0.25118 0.161163,-0.48635 0.124918,-0.52259 -0.03625,-0.0362 -0.585421,0.029 -1.220391,0.14501 -2.540961,0.46421 -4.477735,0.38747 -6.256886,-0.24789 -2.855284,-1.019659 -4.210105,-2.842985 -4.210105,-5.665981 0,-1.334472 0.327816,-2.084958 1.291049,-2.955659 1.007971,-0.911142 1.845522,-1.230124 5.223869,-1.98952 1.67617,-0.376775 3.299009,-0.781026 3.606307,-0.898336 0.663598,-0.253325 1.389193,-0.943701 1.763995,-1.678372 0.340252,-0.666949 0.47216,-2.33835 0.24005,-3.041651 -0.22868,-0.692907 -1.074857,-1.478984 -1.949413,-1.810955 -0.669033,-0.253956 -0.888006,-0.273946 -2.332253,-0.212913 -1.34275,0.05674 -1.700999,0.116391 -2.27363,0.37855 -0.589786,0.270013 -0.69664,0.374599 -0.807485,0.790347 -0.156403,0.586621 -0.03291,1.184822 0.397597,1.926005 0.474256,0.816499 0.538566,1.356238 0.232969,1.955258 -0.31445,0.616374 -0.707994,0.881599 -1.562874,1.053283 -1.18348,0.237677 -2.49317,-0.196926 -3.112063,-1.032694 -0.367484,-0.49626 -0.318844,-1.453798 0.114271,-2.249574 0.700551,-1.287142 2.166873,-2.206793 4.481175,-2.810513 1.691565,-0.44127 4.520812,-0.557298 6.047259,-0.248 3.89954,0.790147 6.307071,2.794693 6.577977,5.476919 0.03658,0.362158 0.121185,2.542845 0.188015,4.84597 0.095,3.273926 0.173279,4.432937 0.3588,5.3125 0.266136,1.261765 0.745461,2.607446 1.212821,3.404936 l 0.312103,0.53256 H 78.497061 74.177615 Z M 74.15083,98.13957 c 0.573405,-0.29325 0.762151,-0.47444 1.022895,-0.981949 0.309288,-0.601989 0.319251,-0.693966 0.304648,-2.812161 -0.01382,-2.003825 -0.291244,-5.287824 -0.461056,-5.457636 -0.03881,-0.03881 -0.594422,0.101973 -1.234702,0.312843 -0.640279,0.21087 -1.782895,0.521382 -2.539145,0.690028 -2.584511,0.576351 -3.516167,1.114236 -4.076017,2.353261 -0.26437,0.585085 -0.298842,0.842576 -0.297769,2.224188 0.0013,1.681406 0.131762,2.280696 0.646498,2.969903 0.654576,0.876445 1.764392,1.163032 4.266893,1.101834 1.545799,-0.0378 1.714789,-0.06637 2.367755,-0.400311 z"
       id="path2107"
       inkscape:connector-curvature="0"
       inkscape:export-xdpi="490.08881"
       inkscape:export-ydpi="490.08881"
       transform="matrix(0.26458333,0,0,0.26458333,-83.910713,130.04791)" />
    <path
       style="fill:#07096e;fill-opacity:1;stroke:#07096e;stroke-width:0.28346458;stroke-linecap:round;stroke-linejoin:round;stroke-miterlimit:4;stroke-dasharray:none;stroke-opacity:1"
       d="m 85.38592,101.47976 -0.607551,-0.0741 0.451301,-0.40928 0.4513,-0.40928 3.53e-4,-4.590718 c 1.95e-4,-2.524895 0.0366,-5.631343 0.08091,-6.903218 l 0.08056,-2.3125 -0.455911,-0.216728 c -0.250752,-0.1192 -0.454426,-0.259825 -0.452611,-0.3125 0.0025,-0.07365 6.291115,-4.115549 6.613186,-4.250536 0.03906,-0.01637 0.226417,0.377381 0.416355,0.875 0.189938,0.49762 0.423141,1.005938 0.518228,1.129596 0.165636,0.215404 0.190467,0.214006 0.592158,-0.03333 1.561491,-0.961471 4.39079,-1.010292 5.731947,-0.09891 0.587501,0.399237 0.923886,1.122123 0.974834,2.094907 0.07292,1.392366 -0.69812,2.522395 -1.960305,2.872996 -0.673423,0.187058 -1.893139,0.153251 -2.550367,-0.07069 -1.113619,-0.379448 -2.080811,-1.660488 -2.086592,-2.763679 -0.0015,-0.28813 -0.05052,-0.5534 -0.108913,-0.589489 -0.05839,-0.03609 -0.508393,0.127145 -1,0.362742 l -0.893832,0.428357 0.0039,5.723631 c 0.0049,7.332545 0.124481,8.308339 1.128951,9.215819 l 0.492909,0.44531 -3.40661,-0.0196 c -1.873635,-0.0108 -3.680007,-0.053 -4.01416,-0.0937 z"
       id="path2109"
       inkscape:connector-curvature="0"
       inkscape:export-xdpi="490.08881"
       inkscape:export-ydpi="490.08881"
       transform="matrix(0.26458333,0,0,0.26458333,-83.910713,130.04791)" />
    <path
       style="fill:#07096e;fill-opacity:1;stroke:#07096e;stroke-width:0.24566929;stroke-linecap:round;stroke-linejoin:round;stroke-miterlimit:4;stroke-dasharray:none;stroke-opacity:1"
       d="m 102.71222,100.97593 0.71875,-0.65787 v -6.355119 -6.355116 l -0.6875,-0.536944 c -0.37812,-0.29532 -0.6875,-0.569054 -0.6875,-0.608297 0,-0.03925 0.45,-0.402368 1,-0.80694 0.55,-0.404573 1,-0.780536 1,-0.835475 0,-0.05494 -0.29531,-0.269834 -0.65625,-0.477545 -0.36094,-0.207711 -0.75409,-0.45302 -0.87367,-0.545129 -0.32146,-0.247608 -0.56577,-0.923931 -0.66276,-1.834724 -0.11025,-1.035338 -0.40523,-1.710218 -1.05622,-2.416455 -0.75662,-0.820839 -1.058277,-0.891087 -3.8136,-0.888086 -1.886864,0.0021 -2.888829,0.07301 -4.875,0.34522 -5.083114,0.696657 -9.571995,1.214682 -10.522299,1.214294 -0.537735,-2.19e-4 -1.461986,-0.08512 -2.053891,-0.188656 -1.235413,-0.21611 -3.612261,-0.862964 -4.089238,-1.112878 -0.318685,-0.166976 -0.306873,-0.177046 0.858649,-0.731933 0.649978,-0.309446 1.310595,-0.601673 1.468037,-0.649394 0.399327,-0.121037 1.242756,-1.228167 1.410657,-1.851705 0.08434,-0.313202 0.10792,-0.893206 0.0594,-1.46097 l -0.08046,-0.941564 0.438899,0.988544 c 0.736133,1.658015 0.996643,1.824503 3.236262,2.068245 1.44557,0.157325 1.942749,0.340935 2.445023,0.902957 0.370551,0.414629 0.372768,0.415224 1.475033,0.395832 0.634956,-0.01117 1.927012,-0.17929 3.041424,-0.395743 2.898208,-0.562921 3.149414,-0.577953 5.437904,-0.325413 1.961279,0.216432 2.140134,0.216964 3.931575,0.0117 1.032255,-0.118277 1.955725,-0.245323 2.052145,-0.282326 0.0964,-0.037 0.21023,-0.241796 0.25289,-0.455097 0.27474,-1.373681 2.53039,-2.579924 4.55952,-2.438261 2.3537,0.164324 4.01177,1.482088 4.0148,3.190793 7.5e-4,0.412726 -0.0912,0.842233 -0.24454,1.142854 -0.47609,0.933218 -2.14617,2.048454 -3.58497,2.393947 -0.85408,0.205088 -1.14089,0.418961 -1.28454,0.957885 -0.2292,0.859828 0.0737,1.592112 0.90296,2.18321 l 0.35025,0.249644 1.7435,-1.317343 1.74351,-1.317343 0.006,6.022958 c 0.003,3.312626 0.0551,7.457333 0.11461,9.210458 0.11972,3.524861 0.23527,4.126625 0.8998,4.685785 l 0.37342,0.31421 h -2.61472 c -1.43809,0 -3.48147,0.0373 -4.54084,0.0828 l -1.92612,0.0828 0.71875,-0.65788 z"
       id="path2111"
       inkscape:connector-curvature="0"
       inkscape:export-xdpi="490.08881"
       inkscape:export-ydpi="490.08881"
       transform="matrix(0.26458333,0,0,0.26458333,-83.910713,130.04791)" />
    <path
       style="fill:#07096e;fill-opacity:1;stroke:#07096e;stroke-width:0.94488192;stroke-linecap:round;stroke-linejoin:round;stroke-miterlimit:4;stroke-dasharray:none;stroke-opacity:1"
       d="m 115.24347,116.15564 c -2.93773,-0.41684 -4.27196,-0.85703 -7.79796,-2.57271 -1.40138,-0.68188 -2.56857,-1.23979 -2.59375,-1.23979 -0.0252,0 -0.0458,0.30938 -0.0458,0.6875 v 0.6875 h -0.54934 -0.54934 l -0.0761,-1.90625 c -0.0419,-1.04843 -0.09,-2.93284 -0.10691,-4.18756 l -0.0308,-2.28131 0.51346,6e-5 0.51346,6e-5 0.0887,1.40625 c 0.10098,1.60122 0.33412,2.95648 0.63104,3.66832 0.85319,2.04542 6.00722,4.5373 10.85907,5.25017 2.06177,0.30293 5.08431,0.19274 6.76037,-0.24645 3.95938,-1.03752 6.96115,-3.81091 8.26997,-7.64079 0.28212,-0.82555 0.34201,-1.21806 0.34332,-2.25 0.001,-1.06865 -0.0527,-1.40536 -0.37238,-2.32091 -0.55631,-1.5931 -1.56257,-3.04072 -3.34237,-4.808364 -1.366,-1.356669 -2.8542,-2.61823 -7.44151,-6.308222 -3.87336,-3.115695 -5.61271,-4.850459 -6.34122,-6.324497 -0.44271,-0.895767 -0.45313,-0.949458 -0.38775,-1.997494 0.0563,-0.902161 0.13935,-1.222993 0.51173,-1.976454 1.3938,-2.820156 5.0674,-4.528516 9.20663,-4.281421 3.23547,0.193145 5.07572,0.922438 7.17004,2.841503 l 0.82996,0.760511 v -1.948574 c 0,-1.908429 0.006,-1.948574 0.26781,-1.948574 0.2534,0 0.26349,0.04132 0.1875,0.768336 -0.0442,0.422585 -0.0803,1.649504 -0.0803,2.726487 v 1.95815 l -1.16,-1.135751 c -1.85672,-1.817908 -3.56969,-2.56004 -5.92058,-2.565052 -1.82468,-0.0039 -3.2722,0.681983 -4.02617,1.907697 -0.40083,0.651624 -0.55577,1.80073 -0.33964,2.518883 0.44159,1.467296 2.13322,3.285252 4.27491,4.594154 3.9007,2.383932 7.50897,5.357174 8.99855,7.414886 1.11976,1.546833 1.66136,3.318602 1.7576,5.749706 0.17174,4.3384 -1.14812,7.69436 -4.20326,10.6875 -2.11102,2.06819 -4.77083,3.4684 -7.85092,4.13298 -1.60916,0.34721 -6.07679,0.44786 -7.96799,0.17952 z"
       id="path2113"
       inkscape:connector-curvature="0"
       inkscape:export-xdpi="490.08881"
       inkscape:export-ydpi="490.08881"
       transform="matrix(0.26458333,0,0,0.26458333,-83.910713,130.04791)" />
    <path
       style="fill:#07096e;fill-opacity:1;stroke:#07096e;stroke-width:0.20787401;stroke-linecap:round;stroke-linejoin:round;stroke-miterlimit:4;stroke-dasharray:none;stroke-opacity:1"
       d="m 56.232522,53.391248 c -0.117995,-0.628968 0.02436,-1.947349 0.322342,-2.985207 0.469906,-1.63668 0.25737,-2.664877 -0.649616,-3.142691 -0.331007,-0.174379 -0.779563,-0.221306 -2.286778,-0.239239 -2.064812,-0.02457 -3.321652,-0.246364 -4.360086,-0.76943 -0.693218,-0.349179 -1.699651,-1.301886 -2.010675,-1.903341 -0.347872,-0.67271 -0.562276,-1.992078 -0.564568,-3.474153 l -0.0022,-1.403457 0.529507,0.574446 c 0.655426,0.711054 1.846529,1.570645 2.735882,1.974423 1.124666,0.510612 2.679104,0.733218 4.609611,0.660128 0.942494,-0.03568 2.018614,-0.152455 2.4375,-0.264497 1.847597,-0.494186 4.153327,-2.03333 6.898109,-4.604697 1.56028,-1.461703 2.563749,-2.123071 3.476891,-2.291557 l 0.5,-0.09226 -0.943623,0.75075 c -2.051032,1.631805 -2.586097,2.808701 -2.744968,6.037674 -0.120079,2.440505 -0.227801,2.95001 -0.938204,4.4375 -0.748427,1.56711 -1.874822,3.095079 -3.291455,4.464904 -1.148613,1.11066 -3.221878,2.722596 -3.501791,2.722596 -0.07212,0 -0.16928,-0.203353 -0.215907,-0.451896 z"
       id="path2115"
       inkscape:connector-curvature="0"
       inkscape:export-xdpi="490.08881"
       inkscape:export-ydpi="490.08881"
       transform="matrix(0.26458333,0,0,0.26458333,-83.910713,130.04791)" />
    <path
       style="fill:#07096e;fill-opacity:1;stroke:#07096e;stroke-width:0.35905513;stroke-linecap:round;stroke-linejoin:round;stroke-miterlimit:4;stroke-dasharray:none;stroke-opacity:1"
       d="m 51.933048,39.154238 c -2.73683,-0.615615 -3.624276,-1.705578 -3.936892,-4.835302 l -0.08358,-0.836707 0.689573,0.373489 c 1.389744,0.752717 3.947745,0.951043 5.016317,0.388924 0.275,-0.144663 0.921875,-0.641836 1.4375,-1.10483 1.649639,-1.481253 3.539346,-2.091205 5.21369,-1.682853 0.577669,0.140887 2.44735,1.308997 3.41131,2.131267 l 0.4375,0.373193 -0.4375,0.0048 c -0.703131,0.0078 -1.727527,0.330734 -2.225808,0.701696 -0.25393,0.189047 -1.090264,0.977411 -1.85852,1.75192 -1.572812,1.585614 -2.36194,2.156455 -3.540672,2.561259 -1.034531,0.355281 -2.95461,0.435895 -4.122922,0.173098 z"
       id="path2117"
       inkscape:connector-curvature="0"
       inkscape:export-xdpi="490.08881"
       inkscape:export-ydpi="490.08881"
       transform="matrix(0.26458333,0,0,0.26458333,-83.910713,130.04791)" />
    <path
       style="fill:#07096e;fill-opacity:1;stroke:#07096e;stroke-width:0.01889764;stroke-linecap:round;stroke-linejoin:round;stroke-miterlimit:4;stroke-dasharray:none;stroke-opacity:1"
       d="m 64.032212,29.988715 c -1.224748,-0.894839 -1.849182,-1.148609 -3.155044,-1.282208 -0.989097,-0.101191 -1.261505,-0.08335 -2.073688,0.135818 -3.833681,1.034519 -4.268153,1.125804 -5.347971,1.123648 -1.100758,-0.0022 -2.542237,-0.239709 -3.025948,-0.498584 -0.257327,-0.137717 -0.250038,-0.157377 0.269411,-0.726646 1.920418,-2.104603 4.615275,-3.293167 7.054025,-3.111173 2.128335,0.15883 4.383033,1.087365 5.753597,2.36946 0.823154,0.77002 1.477833,1.860822 1.403083,2.337765 -0.03777,0.240977 -0.110989,0.211931 -0.877465,-0.34808 z"
       id="path2119"
       inkscape:connector-curvature="0"
       inkscape:export-xdpi="490.08881"
       inkscape:export-ydpi="490.08881"
       transform="matrix(0.26458333,0,0,0.26458333,-83.910713,130.04791)" />
    <path
       style="fill:#07096e;fill-opacity:1;stroke:#07096e;stroke-width:0.01889764;stroke-linecap:round;stroke-linejoin:round;stroke-miterlimit:4;stroke-dasharray:none;stroke-opacity:1"
       d="m 68.259058,31.485368 c -0.248516,-0.274607 -0.40596,-0.780622 -0.588756,-1.892224 -0.343309,-2.08771 -0.700764,-2.569283 -3.037328,-4.091978 -1.945229,-1.267669 -1.940149,-1.347158 0.08575,-1.341865 1.882041,0.0049 2.769399,0.351778 3.980443,1.555918 1.127456,1.121028 1.297119,1.74244 0.916522,3.35688 -0.168083,0.712982 -0.967825,2.646045 -1.094716,2.646045 -0.02819,0 -0.146057,-0.104749 -0.261919,-0.232776 z"
       id="path2121"
       inkscape:connector-curvature="0"
       inkscape:export-xdpi="490.08881"
       inkscape:export-ydpi="490.08881"
       transform="matrix(0.26458333,0,0,0.26458333,-83.910713,130.04791)" />
    <path
       style="fill:#07096e;fill-opacity:1;stroke:#07096e;stroke-width:0.01889764;stroke-linecap:round;stroke-linejoin:round;stroke-miterlimit:4;stroke-dasharray:none;stroke-opacity:1"
       d="m 71.43097,31.773568 c 0,-0.107017 0.207463,-0.683579 0.461029,-1.28125 0.632223,-1.490192 0.631723,-2.27059 -0.0025,-3.863212 -0.252205,-0.633345 -0.458554,-1.266158 -0.458554,-1.40625 0,-0.634108 1.144275,0.03486 2.00133,1.170021 1.647288,2.181817 1.190279,4.233754 -1.18883,5.337756 -0.614304,0.285062 -0.8125,0.295535 -0.8125,0.04293 z"
       id="path2123"
       inkscape:connector-curvature="0"
       inkscape:export-xdpi="490.08881"
       inkscape:export-ydpi="490.08881"
       transform="matrix(0.26458333,0,0,0.26458333,-83.910713,130.04791)" />
    <path
       style="fill:#07096e;fill-opacity:1;stroke:#000000;stroke-width:0.00289397;stroke-linecap:round;stroke-linejoin:round;stroke-miterlimit:4;stroke-dasharray:none;stroke-opacity:1"
       d="m -64.023277,141.28444 c -0.06998,-0.10575 -0.06614,-0.13537 0.0136,-0.10478 0.03792,0.0146 0.0801,0.13892 0.05547,0.16356 -0.01144,0.0114 -0.03697,-0.0103 -0.06906,-0.0588 z"
       id="path2125"
       inkscape:connector-curvature="0"
       inkscape:export-xdpi="490.08881"
       inkscape:export-ydpi="490.08881" />
    <path
       style="fill:#07096e;fill-opacity:1;stroke:#000000;stroke-width:0.00334066;stroke-linecap:round;stroke-linejoin:round;stroke-miterlimit:4;stroke-dasharray:none;stroke-opacity:1"
       d=""
       id="path2129"
       inkscape:connector-curvature="0"
       transform="matrix(0.26458333,0,0,0.26458333,-83.910713,130.04791)" />
    <path
       style="fill:#07096e;fill-opacity:1;stroke:#000000;stroke-width:0.00072349;stroke-linecap:round;stroke-linejoin:round;stroke-miterlimit:4;stroke-dasharray:none;stroke-opacity:1"
       d="m -63.996451,141.34328 c -0.01766,-0.0265 -0.03113,-0.0492 -0.02994,-0.0504 0.0012,-0.001 0.01134,0.01 0.02255,0.0239 0.0201,0.0257 0.0363,0.0348 0.05157,0.029 0.0066,-0.003 0.0075,-0.009 0.0056,-0.0412 -0.0019,-0.0324 -0.0051,-0.044 -0.02128,-0.0766 -0.02134,-0.0429 -0.01763,-0.0476 0.0084,-0.0105 0.02132,0.0304 0.03483,0.0715 0.03516,0.10707 2.16e-4,0.0233 -0.0018,0.0296 -0.01438,0.0452 -0.008,0.01 -0.0171,0.0189 -0.0201,0.0199 -0.003,0.001 -0.01991,-0.0199 -0.03756,-0.0464 z"
       id="path2131"
       inkscape:connector-curvature="0"
       inkscape:export-xdpi="490.08881"
       inkscape:export-ydpi="490.08881" />
    <path
       style="fill:#07096e;fill-opacity:1;stroke:#000000;stroke-width:0.00072349;stroke-linecap:round;stroke-linejoin:round;stroke-miterlimit:4;stroke-dasharray:none;stroke-opacity:1"
       d="m -63.980813,141.33317 c -0.01704,-0.0134 -0.07586,-0.10273 -0.08411,-0.12776 -0.0093,-0.0281 -0.0047,-0.0365 0.01827,-0.0334 0.02736,0.004 0.04374,0.0132 0.06044,0.0351 0.01986,0.0261 0.03678,0.0794 0.03485,0.10981 -0.0018,0.0276 -0.0096,0.0319 -0.02945,0.0163 z"
       id="path2133"
       inkscape:connector-curvature="0"
       inkscape:export-xdpi="490.08881"
       inkscape:export-ydpi="490.08881" />
    <path
       style="fill:#07096e;fill-opacity:1;stroke:#000000;stroke-width:0.0001279;stroke-linecap:round;stroke-linejoin:round;stroke-miterlimit:4;stroke-dasharray:none;stroke-opacity:1"
       d="m -63.962759,141.39529 c -0.0012,-0.002 -0.0076,-0.0107 -0.01427,-0.0199 -0.03798,-0.053 -0.06838,-0.10336 -0.08292,-0.13751 -0.0048,-0.0112 -0.0098,-0.027 -0.0092,-0.0288 1.47e-4,-3.9e-4 0.0022,0.003 0.0045,0.008 0.0054,0.0115 0.0117,0.0232 0.01975,0.0365 0.0074,0.0123 0.02547,0.04 0.0305,0.0468 0.0019,0.003 0.0035,0.005 0.0035,0.005 0,2.8e-4 -0.0031,-0.003 -0.007,-0.007 -0.01011,-0.0105 -0.01189,-0.01 -0.0052,0.003 0.01112,0.0206 0.03715,0.0592 0.05205,0.0773 0.0066,0.008 0.0098,0.0109 0.01202,0.0109 0.0034,0 0.01787,-0.0151 0.02663,-0.0278 0.0063,-0.009 0.0079,-0.0147 0.0084,-0.0299 0.0015,-0.0428 -0.0133,-0.0868 -0.0423,-0.12548 -0.01351,-0.018 -0.01941,-0.0197 -0.01374,-0.004 0.0012,0.003 0.0021,0.006 0.0021,0.006 0,3.3e-4 -0.0017,-0.002 -0.0038,-0.005 -0.0093,-0.0139 -0.01728,-0.0217 -0.02626,-0.0258 -0.01346,-0.006 -0.03526,-0.0118 -0.04568,-0.0118 -0.009,-2e-5 -0.01287,0.001 -0.01663,0.005 l -0.0031,0.003 -4.77e-4,-0.005 c -0.0012,-0.0118 -0.0015,-0.023 -7.15e-4,-0.023 0.0016,0 0.02358,0.008 0.03743,0.0133 0.02838,0.0112 0.05151,0.0236 0.06179,0.0331 0.01086,0.01 0.02328,0.0281 0.03296,0.048 0.01403,0.0289 0.02063,0.0558 0.02061,0.0842 -1.7e-5,0.022 -0.0017,0.0272 -0.01381,0.0436 -0.0059,0.008 -0.01938,0.0239 -0.02299,0.0272 l -0.002,0.002 z"
       id="path2135"
       inkscape:connector-curvature="0"
       inkscape:export-xdpi="490.08881"
       inkscape:export-ydpi="490.08881" />
    <path
       style="fill:#07096e;fill-opacity:1;stroke:#07096e;stroke-width:0.0001279;stroke-linecap:round;stroke-linejoin:round;stroke-miterlimit:4;stroke-dasharray:none;stroke-opacity:1"
       d="m -64.030706,141.65699 c -0.02089,-0.0247 -0.04351,-0.0519 -0.05027,-0.0603 -0.06476,-0.0809 -0.117913,-0.15787 -0.151466,-0.21938 l -0.0079,-0.0145 -0.0042,-2.6e-4 -0.0042,-2.6e-4 -0.0019,-0.006 c -0.009,-0.0277 -0.02553,-0.0813 -0.02741,-0.0888 -0.01389,-0.0553 -0.01792,-0.15265 -0.0105,-0.2538 0.0021,-0.0292 0.01098,-0.12976 0.01144,-0.13022 5.84e-4,-5.8e-4 0.128849,0.0215 0.146272,0.0252 0.13059,0.0276 0.230264,0.067 0.289154,0.11413 0.04301,0.0344 0.08293,0.0918 0.107862,0.15509 0.02974,0.0754 0.03686,0.15847 0.01951,0.22745 -0.0083,0.0328 -0.02764,0.0688 -0.05687,0.10552 -0.02924,0.0367 -0.07287,0.079 -0.120665,0.11699 -0.01217,0.01 -0.09789,0.073 -0.09978,0.0737 -6.28e-4,2.3e-4 -0.01684,-0.0183 -0.03904,-0.0446 z m 0.07725,-0.26457 c 0.01514,-0.0167 0.02908,-0.0363 0.03095,-0.0435 5.63e-4,-0.002 9.52e-4,-0.0118 9.74e-4,-0.0235 3.5e-5,-0.0222 -10e-4,-0.0301 -0.0067,-0.0496 -0.009,-0.0313 -0.02902,-0.0669 -0.04657,-0.083 -0.01269,-0.0116 -0.0446,-0.0273 -0.08358,-0.0411 -0.0087,-0.003 -0.0163,-0.006 -0.01683,-0.006 -9.53e-4,0 -7.79e-4,0.007 6.93e-4,0.0274 l 5.42e-4,0.007 0.0011,-0.003 c 0.0014,-0.004 0.006,-0.008 0.01019,-0.01 0.005,-0.001 0.01224,-0.001 0.02173,8.5e-4 0.01069,0.002 0.03003,0.009 0.03567,0.0118 0.02186,0.0125 0.04695,0.0613 0.05669,0.11039 0.003,0.0151 0.0033,0.0346 6.5e-4,0.0425 -0.0065,0.0196 -0.02004,0.0179 -0.04258,-0.005 -0.01233,-0.0128 -0.02363,-0.0277 -0.03949,-0.0523 -0.01951,-0.0302 -0.03228,-0.0533 -0.03829,-0.0691 -0.0038,-0.01 -0.0039,-0.01 -0.0021,1e-5 0.0034,0.0191 0.01168,0.0391 0.02981,0.0716 0.01517,0.0272 0.03915,0.0643 0.06279,0.0973 0.0067,0.009 0.01313,0.0183 0.01434,0.0201 0.0012,0.002 0.0026,0.003 0.0031,0.003 4.98e-4,2e-5 0.0036,-0.003 0.0069,-0.007 z m -0.0013,-0.0509 c 0.005,-0.005 0.0062,-0.0105 0.0062,-0.0258 -6e-5,-0.0136 -0.0012,-0.0219 -0.0054,-0.0385 -0.01024,-0.0404 -0.03196,-0.0809 -0.04979,-0.0928 -0.0055,-0.004 -0.02607,-0.011 -0.03754,-0.0133 -0.0092,-0.002 -0.01877,-0.002 -0.02334,3.7e-4 -0.0076,0.003 -0.0088,0.0132 -0.0035,0.0291 0.009,0.0273 0.04972,0.0932 0.07545,0.12218 0.01211,0.0137 0.02412,0.0221 0.03136,0.0221 0.0028,0 0.0039,-5.4e-4 0.0066,-0.003 z"
       id="path2221"
       inkscape:connector-curvature="0"
       inkscape:export-xdpi="490.08881"
       inkscape:export-ydpi="490.08881" />
    <path
       style="fill:#07096e;fill-opacity:1;stroke:#07096e;stroke-width:0.03274148;stroke-linecap:round;stroke-linejoin:round;stroke-miterlimit:4;stroke-dasharray:none;stroke-opacity:1"
       id="path2275"
       d="m -64.077655,141.13744 c 6.2e-5,4.3e-4 7.8e-5,8.2e-4 1.85e-4,0.002 4.55e-4,0.002 0.0012,0.003 0.002,0.005 0.0025,0.005 0.0055,0.01 0.0086,0.0149 0.0016,0.002 0.0031,0.005 0.0047,0.007 0.0042,0.006 0.0085,0.0114 0.01275,0.017 0.0082,0.0109 0.01621,0.0219 0.02425,0.0327 0.01708,0.0225 0.0333,0.0457 0.04871,0.0693 0.01053,0.017 0.02162,0.0337 0.03302,0.0503 0.0053,0.007 0.01034,0.0146 0.01574,0.0218 0.0023,0.002 0.0043,0.006 0.0069,0.008 6.29e-4,4.3e-4 9.01e-4,7.1e-4 0.0011,-1.3e-4 0,0 -0.0099,0.008 -0.0099,0.008 v 0 c -6.93e-4,-2.9e-4 -0.0013,-5.9e-4 -0.0018,-8.2e-4 -0.0024,-0.002 -0.0045,-0.006 -0.0066,-0.008 -0.0052,-0.007 -0.0099,-0.0149 -0.01506,-0.0223 -0.01094,-0.0168 -0.02181,-0.0336 -0.03219,-0.0507 -0.0023,-0.003 -0.0046,-0.007 -0.007,-0.0109 -0.01304,-0.02 -0.02714,-0.0394 -0.04152,-0.0585 -0.0082,-0.0109 -0.01634,-0.0218 -0.02471,-0.0325 -0.0044,-0.006 -0.0089,-0.0111 -0.01322,-0.0168 -0.0017,-0.002 -0.0034,-0.005 -0.005,-0.007 -0.0047,-0.007 -0.0097,-0.0136 -0.0121,-0.0214 0,0 0.0112,-0.006 0.0112,-0.006 z"
       inkscape:connector-curvature="0"
       inkscape:export-xdpi="490.08881"
       inkscape:export-ydpi="490.08881" />
    <path
       style="fill:#07096e;fill-opacity:1;stroke:#07096e;stroke-width:0.03274148;stroke-linecap:round;stroke-linejoin:round;stroke-miterlimit:4;stroke-dasharray:none;stroke-opacity:1"
       id="path2277"
       d="m -64.028064,141.16444 c 0.006,0.002 0.01225,0.004 0.0185,0.007 0.0059,0.002 0.01184,0.004 0.01749,0.007 0.0033,0.002 0.0043,0.002 0.0073,0.004 0.0066,0.004 0.01157,0.01 0.01599,0.016 0.005,0.007 0.0083,0.0153 0.01102,0.0235 0.0026,0.008 0.0047,0.0163 0.0074,0.0244 0.0022,0.007 0.0044,0.0143 0.0066,0.0214 9.83e-4,0.004 0.0022,0.007 0.0036,0.0111 6.71e-4,0.002 0.0017,0.004 0.0029,0.007 0.0017,0.003 0.0036,0.006 0.0053,0.009 0.0025,0.005 0.0054,0.009 0.0085,0.0129 0.0027,0.003 0.0056,0.007 0.0081,0.011 0.0011,0.002 5.63e-4,8.2e-4 0.0016,0.002 0,0 -0.01078,0.007 -0.01078,0.007 v 0 c -9e-4,-0.002 -4.33e-4,-7.8e-4 -0.0014,-0.002 -0.0025,-0.004 -0.0052,-0.007 -0.0079,-0.0111 -0.0031,-0.004 -0.0061,-0.009 -0.0087,-0.013 -0.0018,-0.003 -0.0037,-0.006 -0.0055,-0.009 -0.0012,-0.002 -0.0024,-0.004 -0.0029,-0.007 -0.0012,-0.004 -0.0025,-0.007 -0.0034,-0.0113 -0.002,-0.007 -0.0042,-0.0144 -0.0064,-0.0215 -0.0025,-0.008 -0.0049,-0.0163 -0.0074,-0.0244 -0.0027,-0.008 -0.0058,-0.0161 -0.01088,-0.0232 -0.0043,-0.006 -0.0093,-0.0117 -0.01572,-0.0156 -0.003,-0.002 -0.0038,-0.002 -0.0071,-0.004 -0.0056,-0.002 -0.01151,-0.005 -0.01741,-0.007 -0.0065,-0.002 -0.01287,-0.004 -0.01912,-0.006 0,0 0.01042,-0.007 0.01042,-0.007 z"
       inkscape:connector-curvature="0"
       inkscape:export-xdpi="490.08881"
       inkscape:export-ydpi="490.08881" />
    <path
       style="fill:#07096e;fill-opacity:1;stroke:#07096e;stroke-width:0.03274148;stroke-linecap:round;stroke-linejoin:round;stroke-miterlimit:4;stroke-dasharray:none;stroke-opacity:1"
       id="path2279"
       d="m -64.042545,141.14365 c 0.0028,0.002 0.0051,0.005 0.0072,0.008 0.0023,0.003 0.0046,0.007 0.0069,0.0102 0.0018,0.002 0.0031,0.005 0.0046,0.007 0,0 -0.01081,0.007 -0.01081,0.007 v 0 c -0.0014,-0.002 -0.0026,-0.005 -0.0044,-0.007 -0.0023,-0.003 -0.0045,-0.007 -0.0068,-0.0102 -0.0021,-0.002 -0.0043,-0.006 -0.0072,-0.007 0,0 0.01063,-0.007 0.01063,-0.007 z"
       inkscape:connector-curvature="0"
       inkscape:export-xdpi="490.08881"
       inkscape:export-ydpi="490.08881" />
    <path
       style="fill:#07096e;fill-opacity:1;stroke:#07096e;stroke-width:0.03274148;stroke-linecap:round;stroke-linejoin:round;stroke-miterlimit:4;stroke-dasharray:none;stroke-opacity:1"
       id="path2281"
       d="m -64.063153,141.20002 c 9.01e-4,0.005 0.0024,0.009 0.004,0.0133 0.0028,0.007 0.0065,0.0134 0.01017,0.0199 0.0022,0.003 0.0038,0.007 0.0059,0.0113 9e-4,0.002 0.002,0.003 0.0029,0.005 0.0026,0.005 0.0051,0.009 0.0077,0.0138 0.0021,0.003 0.0042,0.007 0.0063,0.0109 0.002,0.004 0.004,0.008 0.006,0.0122 0.0024,0.005 0.0047,0.01 0.007,0.0148 0.0019,0.005 0.0043,0.009 0.0068,0.0132 0.002,0.003 0.0042,0.007 0.0063,0.0106 0.0017,0.003 0.0037,0.006 0.0057,0.009 0.002,0.002 0.0041,0.005 0.0061,0.007 0.002,0.002 0.0039,0.005 0.006,0.007 0.0021,0.002 0.0043,0.005 0.0065,0.007 0.0023,0.002 0.0047,0.004 0.0071,0.006 0.0024,0.002 0.005,0.003 0.0075,0.005 0.0022,0.002 0.0046,0.002 0.007,0.003 0.0028,8.1e-4 0.0052,0.002 0.0077,0.004 0.0024,0.002 0.0044,0.003 0.0066,0.005 0.0014,8.2e-4 6.94e-4,5.4e-4 0.002,0.002 0,0 -0.01058,0.007 -0.01058,0.007 v 0 c -0.0013,-8.1e-4 -6.5e-4,-5.4e-4 -0.002,-0.002 -0.0021,-0.002 -0.0043,-0.003 -0.0065,-0.005 -0.0024,-0.002 -0.0048,-0.002 -0.0075,-0.003 -0.0025,-8.2e-4 -0.0048,-0.002 -0.0071,-0.003 -0.0026,-0.002 -0.0052,-0.003 -0.0076,-0.005 -0.0025,-0.002 -0.0049,-0.004 -0.0072,-0.007 -0.0022,-0.002 -0.0045,-0.004 -0.0066,-0.007 -0.002,-0.002 -0.0039,-0.005 -0.006,-0.007 -0.0021,-0.002 -0.0042,-0.005 -0.0062,-0.007 -0.002,-0.002 -0.0041,-0.006 -0.0057,-0.009 -0.002,-0.003 -0.0042,-0.007 -0.0062,-0.0107 -0.0025,-0.004 -0.0048,-0.009 -0.0068,-0.0134 -0.0022,-0.005 -0.0045,-0.01 -0.0069,-0.0147 -0.002,-0.004 -0.0039,-0.008 -0.006,-0.012 -0.002,-0.003 -0.0041,-0.007 -0.0062,-0.0109 -0.0026,-0.005 -0.0049,-0.009 -0.0076,-0.0138 -9.82e-4,-0.002 -0.002,-0.003 -0.0029,-0.005 -0.002,-0.004 -0.0036,-0.007 -0.0057,-0.0113 -0.0036,-0.007 -0.0074,-0.0131 -0.01039,-0.02 -0.0017,-0.004 -0.0031,-0.009 -0.0044,-0.0133 0,0 0.01103,-0.006 0.01103,-0.006 z"
       inkscape:connector-curvature="0"
       inkscape:export-xdpi="490.08881"
       inkscape:export-ydpi="490.08881" />
    <path
       style="fill:#07096e;fill-opacity:1;stroke:#07096e;stroke-width:0.03274148;stroke-linecap:round;stroke-linejoin:round;stroke-miterlimit:4;stroke-dasharray:none;stroke-opacity:1"
       id="path2283"
       d="m -63.959942,141.38614 c 7.79e-4,0.003 0.0028,0.007 0.0048,0.009 0.0016,0.002 0.0036,0.004 0.0057,0.006 0,0 -0.01054,0.007 -0.01054,0.007 v 0 c -0.0021,-0.002 -0.0041,-0.004 -0.0058,-0.006 -0.0021,-0.002 -0.0043,-0.006 -0.0053,-0.009 0,0 0.01103,-0.006 0.01103,-0.006 z"
       inkscape:connector-curvature="0"
       inkscape:export-xdpi="490.08881"
       inkscape:export-ydpi="490.08881" />
    <path
       style="fill:#07096e;fill-opacity:1;stroke:#07096e;stroke-width:0.00083517;stroke-linecap:round;stroke-linejoin:round;stroke-miterlimit:4;stroke-dasharray:none;stroke-opacity:1"
       d="m 53.577702,39.436836 c -0.488937,-0.03228 -1.12043,-0.114397 -1.592795,-0.207129 -1.447702,-0.284203 -2.48593,-0.827809 -3.111346,-1.629069 -0.02609,-0.03342 -0.07813,-0.106757 -0.115656,-0.162967 -0.365321,-0.547235 -0.582788,-1.231939 -0.712547,-2.243489 -0.03686,-0.28732 -0.05248,-0.439733 -0.113506,-1.106981 -0.03581,-0.391528 -0.05419,-0.577574 -0.07424,-0.751301 -0.0042,-0.03646 -0.0067,-0.06721 -0.0056,-0.06833 0.0011,-0.0011 0.02763,0.02173 0.05893,0.05078 0.216144,0.200671 0.503792,0.406329 0.788857,0.564007 0.04709,0.02605 0.08211,0.04737 0.07781,0.04738 -0.01068,2.2e-5 -0.09977,-0.04698 -0.51003,-0.26909 -0.210717,-0.114081 -0.355502,-0.189334 -0.360546,-0.187399 -0.0063,0.0024 -0.0077,0.0085 -0.0055,0.02409 0.0016,0.01147 0.02414,0.233402 0.05,0.493181 0.04851,0.487161 0.068,0.664315 0.09666,0.878359 0.284603,2.125683 0.925164,3.168333 2.340345,3.809414 0.417105,0.18895 1.004545,0.372469 1.600913,0.500135 0.677492,0.145032 1.682701,0.182009 2.59917,0.09561 0.619691,-0.05842 1.113876,-0.156106 1.530223,-0.302481 0.196659,-0.06914 0.389321,-0.146674 0.557951,-0.224542 0.0471,-0.02175 0.08873,-0.04087 0.09253,-0.04251 0.0052,-0.0022 0.0069,0.0073 0.0069,0.0378 v 0.04077 l -0.10358,0.03972 c -0.950588,0.364528 -1.810804,0.570899 -2.561881,0.614609 -0.109544,0.0064 -0.433108,0.006 -0.533092,-5.74e-4 z"
       id="path3813"
       inkscape:connector-curvature="0"
       inkscape:export-xdpi="490.08881"
       inkscape:export-ydpi="490.08881"
       transform="matrix(0.26458333,0,0,0.26458333,-83.910713,130.04791)" />
    <path
       style="fill:#07096e;fill-opacity:1;stroke:#07096e;stroke-width:0.00059055;stroke-linecap:round;stroke-linejoin:round;stroke-miterlimit:4;stroke-dasharray:none;stroke-opacity:1"
       d="m 53.614606,39.4367 c -0.169338,-0.0078 -0.485185,-0.03839 -0.804688,-0.07804 -0.06768,-0.0084 -0.151172,-0.01811 -0.185547,-0.02158 -0.03437,-0.0035 -0.06821,-0.0072 -0.07519,-0.0082 l -0.0127,-0.0019 V 37.356367 35.38584 h 4.111328 c 2.26123,0 4.111328,6.13e-4 4.111328,0.0014 0,7.5e-4 -0.05142,0.05027 -0.114258,0.110048 -0.237652,0.226063 -0.472729,0.456066 -0.940362,0.920065 -0.265369,0.263308 -0.516827,0.512038 -0.558795,0.552735 -0.945431,0.916782 -1.593321,1.413894 -2.301624,1.765986 -0.04384,0.02179 -0.06936,0.03664 -0.0694,0.04038 -4.3e-5,0.004 -0.01964,0.01328 -0.06152,0.02906 -0.0338,0.01273 -0.09838,0.03883 -0.143493,0.05799 -0.247889,0.105293 -0.480677,0.190151 -0.677104,0.246823 -0.0941,0.02715 -0.258091,0.06767 -0.348287,0.08606 -0.0376,0.0077 -0.123155,0.02707 -0.190127,0.04312 -0.42921,0.102877 -0.764369,0.158422 -1.143857,0.189568 -0.07859,0.0065 -0.139593,0.0083 -0.3125,0.0094 -0.118164,7.65e-4 -0.245606,0 -0.283203,-0.0017 z"
       id="path3817"
       inkscape:connector-curvature="0"
       inkscape:export-xdpi="490.08881"
       inkscape:export-ydpi="490.08881"
       transform="matrix(0.26458333,0,0,0.26458333,-83.910713,130.04791)" />
    <path
       style="fill:#07096e;fill-opacity:1;stroke:#07096e;stroke-width:0.00059055;stroke-linecap:round;stroke-linejoin:round;stroke-miterlimit:4;stroke-dasharray:none;stroke-opacity:1"
       d="m 56.778668,38.776765 c 0,-0.002 0.05054,-0.02921 0.112305,-0.06051 0.434579,-0.220178 0.823853,-0.481234 1.284179,-0.861201 0.320899,-0.264879 0.651662,-0.567857 1.122824,-1.028502 0.08279,-0.08095 0.151168,-0.146541 0.151943,-0.145767 7.74e-4,7.75e-4 -0.02484,0.03185 -0.05693,0.06905 -0.11111,0.128824 -0.507716,0.507606 -0.819628,0.782793 -0.687008,0.606119 -1.270346,1.018083 -1.731571,1.222867 -0.05762,0.02558 -0.06312,0.02744 -0.06312,0.02127 z"
       id="path3819"
       inkscape:connector-curvature="0"
       inkscape:export-xdpi="490.08881"
       inkscape:export-ydpi="490.08881"
       transform="matrix(0.26458333,0,0,0.26458333,-83.910713,130.04791)" />
    <path
       style="fill:#07096e;fill-opacity:1;stroke:#07096e;stroke-width:0.00059055;stroke-linecap:round;stroke-linejoin:round;stroke-miterlimit:4;stroke-dasharray:none;stroke-opacity:1"
       d="m 56.786481,38.775155 c 0,-0.0012 0.02944,-0.01744 0.06543,-0.03614 0.283731,-0.147425 0.436963,-0.23637 0.645508,-0.37469 0.267738,-0.17758 0.542023,-0.387912 0.844893,-0.647893 0.267168,-0.229336 0.489571,-0.43533 0.908397,-0.841378 0.08479,-0.0822 0.155026,-0.148602 0.156076,-0.147551 0.009,0.009 -0.303189,0.317526 -0.579288,0.572657 -0.771405,0.712822 -1.480143,1.231262 -1.988287,1.454428 -0.05322,0.02337 -0.05273,0.02318 -0.05273,0.02057 z"
       id="path3821"
       inkscape:connector-curvature="0"
       inkscape:export-xdpi="490.08881"
       inkscape:export-ydpi="490.08881"
       transform="matrix(0.26458333,0,0,0.26458333,-83.910713,130.04791)" />
    <path
       style="fill:#07096e;fill-opacity:1;stroke:#07096e;stroke-width:0.00059055;stroke-linecap:round;stroke-linejoin:round;stroke-miterlimit:4;stroke-dasharray:none;stroke-opacity:1"
       d="m 56.788629,38.772956 c 0.002,-0.0019 0.04678,-0.0259 0.09941,-0.05327 0.390869,-0.203235 0.678265,-0.386623 1.027344,-0.655551 0.391635,-0.301714 0.743877,-0.615773 1.34911,-1.202869 0.07707,-0.07476 0.141042,-0.135012 0.14216,-0.133894 0.006,0.006 -0.148432,0.164589 -0.323301,0.332145 -0.663363,0.63562 -1.268876,1.12714 -1.783204,1.4475 -0.139207,0.08671 -0.339089,0.194286 -0.459907,0.247526 -0.04954,0.02183 -0.05867,0.02509 -0.05162,0.01841 z"
       id="path3823"
       inkscape:connector-curvature="0"
       inkscape:export-xdpi="490.08881"
       inkscape:export-ydpi="490.08881"
       transform="matrix(0.26458333,0,0,0.26458333,-83.910713,130.04791)" />
    <path
       style="fill:#07096e;fill-opacity:1;stroke:#07096e;stroke-width:0.00059055;stroke-linecap:round;stroke-linejoin:round;stroke-miterlimit:4;stroke-dasharray:none;stroke-opacity:1"
       d="m 56.788629,38.772852 c 0.002,-0.002 0.05469,-0.03029 0.116992,-0.06289 0.242802,-0.127064 0.407962,-0.223782 0.595703,-0.348847 0.360139,-0.239906 0.733818,-0.539404 1.167892,-0.936044 0.162358,-0.148357 0.262602,-0.243245 0.543087,-0.514073 0.177334,-0.171229 0.195271,-0.187996 0.195271,-0.182537 0,0.01144 -0.203048,0.217137 -0.384873,0.38989 -0.723986,0.687866 -1.398414,1.216371 -1.920613,1.505058 -0.07068,0.03908 -0.204331,0.106045 -0.265402,0.132988 -0.04527,0.01997 -0.05513,0.02335 -0.04806,0.01646 z"
       id="path3825"
       inkscape:connector-curvature="0"
       inkscape:export-xdpi="490.08881"
       inkscape:export-ydpi="490.08881"
       transform="matrix(0.26458333,0,0,0.26458333,-83.910713,130.04791)" />
    <path
       style="fill:#07096e;fill-opacity:1;stroke:#07096e;stroke-width:0.00059055;stroke-linecap:round;stroke-linejoin:round;stroke-miterlimit:4;stroke-dasharray:none;stroke-opacity:1"
       d="m 53.632184,39.438007 c -0.147276,-0.0054 -0.481639,-0.03735 -0.808594,-0.07737 -0.128685,-0.01575 -0.236871,-0.02788 -0.271484,-0.03043 l -0.01367,-0.001 -9.81e-4,-1.97168 -9.8e-4,-1.97168 4.112308,4.9e-5 4.112309,4.9e-5 -0.03906,0.0381 c -0.02148,0.02096 -0.100583,0.09696 -0.175776,0.168896 -0.218474,0.20901 -0.395429,0.382517 -0.880579,0.863416 -0.590921,0.585744 -0.752998,0.742194 -1.019846,0.984437 -0.537552,0.487988 -0.99234,0.837019 -1.41208,1.083713 -0.0589,0.03462 -0.08668,0.05347 -0.04297,0.02916 0.03657,-0.02034 0.173711,-0.104027 0.236329,-0.144218 0.300987,-0.193185 0.648351,-0.460106 1.003906,-0.77142 0.221823,-0.194222 0.424983,-0.383395 0.788521,-0.734233 0.101753,-0.0982 0.185936,-0.177611 0.187075,-0.176472 0.0086,0.0086 -0.256368,0.273367 -0.512706,0.512412 -0.670179,0.624969 -1.299454,1.111257 -1.789062,1.382544 -0.107718,0.05969 -0.311736,0.158207 -0.316907,0.153036 -0.0025,-0.0025 0.01937,-0.01476 0.108899,-0.06108 0.04243,-0.02196 0.07715,-0.0407 0.07715,-0.04166 0,-0.0049 -0.196462,0.09768 -0.197938,0.103322 -0.0011,0.0042 -0.02408,0.01502 -0.06691,0.03142 -0.03588,0.01374 -0.102142,0.04072 -0.147259,0.05997 -0.374498,0.159761 -0.700493,0.264834 -1.032825,0.332895 -0.03739,0.0077 -0.108581,0.0237 -0.158203,0.03565 -0.444838,0.107126 -0.774893,0.161704 -1.180066,0.195132 -0.07142,0.0059 -0.456656,0.01075 -0.558593,0.007 z m 3.392578,-0.792513 c 0,-0.0011 -0.01055,0.0034 -0.02344,0.0099 -0.01289,0.0065 -0.02344,0.01271 -0.02344,0.01378 0,0.0011 0.01055,-0.0034 0.02344,-0.0099 0.01289,-0.0065 0.02344,-0.01271 0.02344,-0.01378 z m 0.04297,-0.02348 c 0,-0.0011 -0.007,0.0016 -0.01563,0.006 -0.0086,0.0044 -0.01563,0.0089 -0.01563,0.0099 0,0.0011 0.007,-0.0016 0.01563,-0.006 0.0086,-0.0044 0.01563,-0.0089 0.01563,-0.0099 z m 0.04297,-0.02341 c 0,-0.0011 -0.0088,0.0025 -0.01953,0.0079 -0.01074,0.0054 -0.01953,0.01078 -0.01953,0.01185 0,0.0011 0.0088,-0.0025 0.01953,-0.0079 0.01074,-0.0054 0.01953,-0.01078 0.01953,-0.01185 z m 0.02734,-0.0157 c 0,-0.0011 -0.0053,7.74e-4 -0.01172,0.0041 -0.0064,0.0033 -0.01172,0.0069 -0.01172,0.008 0,0.0011 0.0053,-7.73e-4 0.01172,-0.0041 0.0064,-0.0033 0.01172,-0.0069 0.01172,-0.008 z m 0.02734,-0.01563 c 0,-0.0011 -0.0053,7.74e-4 -0.01172,0.0041 -0.0064,0.0033 -0.01172,0.0069 -0.01172,0.008 0,0.0011 0.0053,-7.73e-4 0.01172,-0.0041 0.0064,-0.0033 0.01172,-0.0069 0.01172,-0.008 z"
       id="path3827"
       inkscape:connector-curvature="0"
       inkscape:export-xdpi="490.08881"
       inkscape:export-ydpi="490.08881"
       transform="matrix(0.26458333,0,0,0.26458333,-83.910713,130.04791)" />
    <path
       style="fill:#07096e;fill-opacity:1;stroke:#07096e;stroke-width:0.00059055;stroke-linecap:round;stroke-linejoin:round;stroke-miterlimit:4;stroke-dasharray:none;stroke-opacity:1"
       d="m 53.624371,39.43788 c -0.149847,-0.0061 -0.503191,-0.0402 -0.80664,-0.07778 -0.06123,-0.0076 -0.149122,-0.01768 -0.195313,-0.02244 l -0.08398,-0.0087 -9.81e-4,-1.971579 -9.8e-4,-1.97158 h 4.111332 c 2.261233,0 4.111332,7.31e-4 4.111332,0.0016 0,8.92e-4 -0.08302,0.08131 -0.184497,0.17871 -0.246608,0.236706 -0.462444,0.447979 -0.805501,0.788476 -0.156966,0.155794 -0.376799,0.373636 -0.488518,0.484093 -0.202364,0.20008 -0.202554,0.200283 -0.05078,0.0542 0.159252,-0.15328 0.177734,-0.170356 0.177734,-0.164217 0,0.01139 -0.227982,0.242109 -0.400533,0.405339 -0.721716,0.682729 -1.3727,1.192762 -1.894389,1.484215 -0.101597,0.05676 -0.286609,0.147391 -0.318359,0.155955 -0.0095,0.0026 -0.0096,0.0025 -0.002,-0.0037 0.0043,-0.0035 0.04341,-0.02477 0.08691,-0.04735 0.04351,-0.02258 0.0791,-0.04185 0.0791,-0.04281 0,-0.0049 -0.18358,0.09256 -0.1837,0.09753 -5.8e-5,0.0024 -0.04884,0.02391 -0.108398,0.04778 -0.05956,0.02387 -0.146558,0.05943 -0.193326,0.07901 -0.175894,0.07366 -0.416748,0.159477 -0.577076,0.205615 -0.09391,0.02703 -0.274333,0.07169 -0.355469,0.088 -0.0333,0.0067 -0.112403,0.0245 -0.175781,0.03956 -0.495064,0.117671 -0.919046,0.1835 -1.279297,0.198629 -0.08276,0.0035 -0.387025,0.0044 -0.460938,0.0013 z m 3.384766,-0.784736 c 0,-0.0011 -0.0035,-7.2e-5 -0.0078,0.0022 -0.0043,0.0023 -0.0078,0.0051 -0.0078,0.0061 0,0.0011 0.0035,7.1e-5 0.0078,-0.0022 0.0043,-0.0023 0.0078,-0.0051 0.0078,-0.0061 z m 0.05078,-0.02734 c 0,-0.0011 -0.0035,-7.1e-5 -0.0078,0.0022 -0.0043,0.0023 -0.0078,0.0051 -0.0078,0.0061 0,0.0011 0.0035,7.2e-5 0.0078,-0.0022 0.0043,-0.0023 0.0078,-0.0051 0.0078,-0.0061 z m 0.03516,-0.01953 c 0,-0.0011 -0.0035,-7.2e-5 -0.0078,0.0022 -0.0043,0.0023 -0.0078,0.0051 -0.0078,0.0061 0,0.0011 0.0035,7.1e-5 0.0078,-0.0022 0.0043,-0.0023 0.0078,-0.0051 0.0078,-0.0061 z m 0.0625,-0.03516 c 0,-0.0011 -0.0035,-7.1e-5 -0.0078,0.0022 -0.0043,0.0023 -0.0078,0.0051 -0.0078,0.0061 0,0.0011 0.0035,7.1e-5 0.0078,-0.0022 0.0043,-0.0023 0.0078,-0.0051 0.0078,-0.0061 z m 0.05469,-0.03125 c 0,-0.0011 -0.0035,-7.1e-5 -0.0078,0.0022 -0.0043,0.0023 -0.0078,0.0051 -0.0078,0.0061 0,0.0011 0.0035,7.1e-5 0.0078,-0.0022 0.0043,-0.0023 0.0078,-0.0051 0.0078,-0.0061 z m 0.01953,-0.01172 c 0,-0.0011 -0.0035,-7.2e-5 -0.0078,0.0022 -0.0043,0.0023 -0.0078,0.0051 -0.0078,0.0061 0,0.0011 0.0035,7.1e-5 0.0078,-0.0022 0.0043,-0.0023 0.0078,-0.0051 0.0078,-0.0061 z m 0.0332,-0.01929 c 0.0043,-0.0036 7.81e-4,-0.0025 -0.0078,0.0023 -0.0086,0.0048 -0.01738,0.01045 -0.01953,0.0125 -0.0061,0.0058 0.01862,-0.0075 0.02734,-0.01478 z m 0.02539,-0.01586 c 0,-0.0011 -0.0035,-7.1e-5 -0.0078,0.0022 -0.0043,0.0023 -0.0078,0.0051 -0.0078,0.0061 0,0.0011 0.0035,7.1e-5 0.0078,-0.0022 0.0043,-0.0023 0.0078,-0.0051 0.0078,-0.0061 z m 0.01953,-0.01172 c 0,-0.0011 -0.0035,-7.2e-5 -0.0078,0.0022 -0.0043,0.0023 -0.0078,0.0051 -0.0078,0.0061 0,0.0011 0.0035,7.1e-5 0.0078,-0.0022 0.0043,-0.0023 0.0078,-0.0051 0.0078,-0.0061 z m 0.01953,-0.01172 c 0,-0.0011 -0.0035,-7.1e-5 -0.0078,0.0022 -0.0043,0.0023 -0.0078,0.0051 -0.0078,0.0061 0,0.0011 0.0035,7.2e-5 0.0078,-0.0022 0.0043,-0.0023 0.0078,-0.0051 0.0078,-0.0061 z m 0.04785,-0.02876 c 0.0145,-0.0091 0.02637,-0.01751 0.02637,-0.01864 0,-0.0011 -0.004,5.11e-4 -0.0088,0.0036 -0.0048,0.0031 -0.02065,0.01316 -0.03516,0.02228 -0.0145,0.0091 -0.02637,0.01751 -0.02637,0.01864 0,0.0011 0.004,-5.1e-4 0.0088,-0.0036 0.0048,-0.0031 0.02065,-0.01316 0.03516,-0.02228 z m 0.0957,-0.06167 c 0.03061,-0.01999 0.05566,-0.0372 0.05566,-0.03823 0,-10e-4 -0.01978,0.01097 -0.04395,0.02667 -0.06645,0.04317 -0.07715,0.05042 -0.07715,0.05223 0,0.0021 -0.0012,0.0028 0.06543,-0.04067 z m 0.167734,-0.115572 c 0.0029,-0.0046 -0.09575,0.06226 -0.104257,0.07073 -0.0032,0.0032 0.01837,-0.01052 0.04799,-0.03049 0.02962,-0.01998 0.05494,-0.03808 0.05627,-0.04023 z m 0.122305,-0.08643 c 0.226652,-0.165534 0.494194,-0.384075 0.757762,-0.618975 0.09924,-0.08845 0.244143,-0.221239 0.281286,-0.257779 0.01612,-0.01586 0.0065,-0.0078 -0.02147,0.01786 -0.435088,0.400114 -0.779668,0.686852 -1.094726,0.910963 -0.02202,0.01566 -0.04004,0.02935 -0.04004,0.03041 0,0.0023 0.03042,-0.01911 0.117187,-0.08248 z m 1.107422,-0.939715 c 0.01709,-0.01719 0.03019,-0.03125 0.02911,-0.03125 -0.0011,0 -0.01593,0.01406 -0.03302,0.03125 -0.01709,0.01719 -0.03019,0.03125 -0.02911,0.03125 0.0011,0 0.01593,-0.01406 0.03302,-0.03125 z m 0.07227,-0.06836 c 0.01817,-0.01826 0.03215,-0.0332 0.03108,-0.0332 -0.0011,0 -0.01682,0.01494 -0.03498,0.0332 -0.01817,0.01826 -0.03215,0.0332 -0.03108,0.0332 0.0011,0 0.01682,-0.01494 0.03498,-0.0332 z m 0.08398,-0.08008 c 0.02356,-0.02363 0.04196,-0.04297 0.04088,-0.04297 -0.0011,0 -0.02123,0.01934 -0.04479,0.04297 -0.02356,0.02363 -0.04196,0.04297 -0.04088,0.04297 0.0011,0 0.02123,-0.01934 0.04479,-0.04297 z"
       id="path3829"
       inkscape:connector-curvature="0"
       inkscape:export-xdpi="490.08881"
       inkscape:export-ydpi="490.08881"
       transform="matrix(0.26458333,0,0,0.26458333,-83.910713,130.04791)" />
    <path
       style="fill:#07096e;fill-opacity:1;stroke:#07096e;stroke-width:0.00059055;stroke-linecap:round;stroke-linejoin:round;stroke-miterlimit:4;stroke-dasharray:none;stroke-opacity:1"
       d="m 53.583356,39.436262 c -0.177388,-0.0105 -0.45261,-0.03773 -0.765625,-0.07577 -0.07842,-0.0095 -0.17378,-0.02035 -0.211914,-0.02406 l -0.06934,-0.0067 V 37.357774 35.38584 h 4.111328 c 2.26123,0 4.111138,0.0013 4.110906,0.0029 -2.31e-4,0.0016 -0.0455,0.04591 -0.100586,0.09844 -0.309589,0.295211 -0.75932,0.736835 -1.338445,1.314317 -0.116342,0.116012 -0.117415,0.117213 -0.02734,0.03061 0.09792,-0.09415 0.115234,-0.109633 0.115234,-0.103058 0,0.01301 -0.265604,0.279196 -0.46289,0.463901 -0.834014,0.78083 -1.554657,1.316725 -2.096921,1.559344 -0.07374,0.03299 -0.08492,0.03069 -0.01734,-0.0036 0.01665,-0.0084 0.03027,-0.01629 0.03027,-0.01744 0,-0.0039 -0.07216,0.03505 -0.08068,0.04351 -0.0046,0.0046 -0.04231,0.02191 -0.08373,0.03849 -0.04142,0.01657 -0.108335,0.0441 -0.14869,0.06117 -0.355944,0.150557 -0.662208,0.250123 -0.977909,0.317918 -0.08327,0.01788 -0.152265,0.03349 -0.300782,0.06806 -0.427225,0.09944 -0.84609,0.161954 -1.179687,0.176058 -0.107456,0.0045 -0.427498,0.0044 -0.505859,-2.58e-4 z m 3.351562,-0.743982 c 0,-0.0011 -0.0053,7.74e-4 -0.01172,0.0041 -0.0064,0.0033 -0.01172,0.0069 -0.01172,0.008 0,0.0011 0.0053,-7.73e-4 0.01172,-0.0041 0.0064,-0.0033 0.01172,-0.0069 0.01172,-0.008 z m 0.425781,-0.242261 c 0,-0.0011 -0.0035,-7.2e-5 -0.0078,0.0022 -0.0043,0.0023 -0.0078,0.0051 -0.0078,0.0061 0,0.0011 0.0035,7.1e-5 0.0078,-0.0022 0.0043,-0.0023 0.0078,-0.0051 0.0078,-0.0061 z m 0.03125,-0.01953 c 0,-0.0011 -0.0035,-7.1e-5 -0.0078,0.0022 -0.0043,0.0023 -0.0078,0.0051 -0.0078,0.0061 0,0.0011 0.0035,7.1e-5 0.0078,-0.0022 0.0043,-0.0023 0.0078,-0.0051 0.0078,-0.0061 z m 0.04883,-0.0309 0.0078,-0.0064 -0.0078,0.0038 c -0.0043,0.0021 -0.01133,0.0067 -0.01563,0.0102 l -0.0078,0.0064 0.0078,-0.0038 c 0.0043,-0.0021 0.01133,-0.0067 0.01563,-0.0102 z m 0.150391,-0.102008 c 0,-0.0011 -0.0079,0.0035 -0.01758,0.01014 -0.0097,0.0067 -0.01758,0.01297 -0.01758,0.01405 0,0.0011 0.0079,-0.0035 0.01758,-0.01014 0.0097,-0.0067 0.01758,-0.01297 0.01758,-0.01405 z m 0.03565,-0.02404 c 0.0049,-0.0062 0.0047,-0.0063 -0.0015,-0.0015 -0.0065,0.0051 -0.0086,0.0083 -0.0054,0.0083 8.11e-4,0 0.0039,-0.0031 0.0068,-0.0068 z m 0.03906,-0.02734 c 0.0049,-0.0062 0.0047,-0.0063 -0.0015,-0.0015 -0.0038,0.0029 -0.0068,0.006 -0.0068,0.0068 0,0.0032 0.0032,0.0011 0.0083,-0.0054 z m 0.02734,-0.01953 c 0.0049,-0.0062 0.0047,-0.0063 -0.0015,-0.0015 -0.0065,0.0051 -0.0086,0.0083 -0.0054,0.0083 8.11e-4,0 0.0039,-0.0031 0.0068,-0.0068 z m 0.02734,-0.01953 c 0.0049,-0.0062 0.0047,-0.0063 -0.0015,-0.0015 -0.0038,0.0029 -0.0068,0.006 -0.0068,0.0068 0,0.0032 0.0032,0.0011 0.0083,-0.0054 z m 0.03075,-0.02299 c 0,-0.0011 -0.0053,0.0018 -0.01172,0.0064 -0.0064,0.0046 -0.01172,0.0092 -0.01172,0.0103 0,0.0011 0.0053,-0.0018 0.01172,-0.0064 0.0064,-0.0046 0.01172,-0.0092 0.01172,-0.0103 z m 0.01222,-0.0083 c 0.0049,-0.0062 0.0047,-0.0063 -0.0015,-0.0015 -0.0065,0.0051 -0.0086,0.0083 -0.0054,0.0083 8.11e-4,0 0.0039,-0.0031 0.0068,-0.0068 z m 0.01563,-0.01172 c 0.0049,-0.0062 0.0047,-0.0063 -0.0015,-0.0015 -0.0038,0.0029 -0.0068,0.006 -0.0068,0.0068 0,0.0032 0.0032,0.0011 0.0083,-0.0054 z m 0.01563,-0.01172 c 0.0049,-0.0062 0.0047,-0.0063 -0.0015,-0.0015 -0.0038,0.0029 -0.0068,0.006 -0.0068,0.0068 0,0.0032 0.0032,0.0011 0.0083,-0.0054 z m 0.01563,-0.01172 c 0.0049,-0.0062 0.0047,-0.0063 -0.0015,-0.0015 -0.0038,0.0029 -0.0068,0.006 -0.0068,0.0068 0,0.0032 0.0032,0.0011 0.0083,-0.0054 z m 0.04753,-0.03573 c 0.0026,-0.0032 -0.0054,0.0018 -0.01775,0.01102 -0.01235,0.0093 -0.02246,0.01763 -0.02246,0.01858 0,0.0027 0.03491,-0.02303 0.04021,-0.02961 z m 0.01497,-0.01115 c 0.0049,-0.0062 0.0047,-0.0063 -0.0015,-0.0015 -0.0038,0.0029 -0.0068,0.006 -0.0068,0.0068 0,0.0032 0.0032,0.0011 0.0083,-0.0054 z m 0.01563,-0.01172 c 0.0049,-0.0062 0.0047,-0.0063 -0.0015,-0.0015 -0.0065,0.0051 -0.0086,0.0083 -0.0054,0.0083 8.11e-4,0 0.0039,-0.0031 0.0068,-0.0068 z m 0.01563,-0.01172 c 0.0049,-0.0062 0.0047,-0.0063 -0.0015,-0.0015 -0.0038,0.0029 -0.0068,0.006 -0.0068,0.0068 0,0.0032 0.0032,0.0011 0.0083,-0.0054 z m 0.01708,-0.0127 c 0.0039,-0.0043 0.0062,-0.0078 0.0051,-0.0078 -0.0011,0 -0.0051,0.0035 -0.009,0.0078 -0.0039,0.0043 -0.0062,0.0078 -0.0051,0.0078 0.0011,0 0.0051,-0.0035 0.009,-0.0078 z m 0.01808,-0.01465 c 0.0049,-0.0062 0.0047,-0.0063 -0.0015,-0.0015 -0.0038,0.0029 -0.0068,0.006 -0.0068,0.0068 0,0.0032 0.0032,0.0011 0.0083,-0.0054 z m 0.01708,-0.0127 c 0.0039,-0.0043 0.0062,-0.0078 0.0051,-0.0078 -0.0011,0 -0.0051,0.0035 -0.009,0.0078 -0.0039,0.0043 -0.0062,0.0078 -0.0051,0.0078 0.0011,0 0.0051,-0.0035 0.009,-0.0078 z m 0.04102,-0.03386 c 0,-0.0011 -0.007,0.0036 -0.01563,0.01042 -0.0086,0.0068 -0.01563,0.01325 -0.01563,0.01433 0,0.0011 0.007,-0.0036 0.01563,-0.01042 0.0086,-0.0068 0.01563,-0.01325 0.01563,-0.01433 z m 0.01367,-0.0091 c 0.0039,-0.0043 0.0062,-0.0078 0.0051,-0.0078 -0.0011,0 -0.0051,0.0035 -0.009,0.0078 -0.0039,0.0043 -0.0062,0.0078 -0.0051,0.0078 0.0011,0 0.0051,-0.0035 0.009,-0.0078 z m 0.01953,-0.01563 c 0.0039,-0.0043 0.0062,-0.0078 0.0051,-0.0078 -0.0011,0 -0.0051,0.0035 -0.009,0.0078 -0.0039,0.0043 -0.0062,0.0078 -0.0051,0.0078 0.0011,0 0.0051,-0.0035 0.009,-0.0078 z m 0.01953,-0.01563 c 0.0039,-0.0043 0.0062,-0.0078 0.0051,-0.0078 -0.0011,0 -0.0051,0.0035 -0.009,0.0078 -0.0039,0.0043 -0.0062,0.0078 -0.0051,0.0078 0.0011,0 0.0051,-0.0035 0.009,-0.0078 z m 0.01953,-0.01563 c 0.0039,-0.0043 0.0062,-0.0078 0.0051,-0.0078 -0.0011,0 -0.0051,0.0035 -0.009,0.0078 -0.0039,0.0043 -0.0062,0.0078 -0.0051,0.0078 0.0011,0 0.0051,-0.0035 0.009,-0.0078 z m 0.01953,-0.01563 c 0.0039,-0.0043 0.0062,-0.0078 0.0051,-0.0078 -0.0011,0 -0.0051,0.0035 -0.009,0.0078 -0.0039,0.0043 -0.0062,0.0078 -0.0051,0.0078 0.0011,0 0.0051,-0.0035 0.009,-0.0078 z m 0.04883,-0.04174 c 0,-0.0011 -0.0088,0.0054 -0.01953,0.0144 -0.01074,0.009 -0.01953,0.01723 -0.01953,0.01831 0,0.0011 0.0088,-0.0054 0.01953,-0.0144 0.01074,-0.009 0.01953,-0.01723 0.01953,-0.01831 z m 0.08105,-0.06521 c 0.03276,-0.02729 0.05957,-0.05047 0.05957,-0.0515 0,-10e-4 -0.03076,0.02381 -0.06836,0.05522 -0.0376,0.03141 -0.06836,0.05813 -0.06836,0.05937 0,0.0012 0.004,-0.0013 0.0088,-0.0056 0.0048,-0.0043 0.0356,-0.03019 0.06836,-0.05748 z m 0.18536,-0.157932 c 0.04018,-0.03486 0.07422,-0.06526 0.07563,-0.06755 0.0031,-0.005 -0.175643,0.149274 -0.189706,0.163739 -0.01225,0.0126 0.02064,-0.01514 0.114071,-0.09619 z m 0.09882,-0.08667 c 0.0084,-0.0086 0.01438,-0.01563 0.01331,-0.01563 -0.0011,0 -0.0088,0.007 -0.01721,0.01563 -0.0084,0.0086 -0.01438,0.01563 -0.0133,0.01563 0.0011,0 0.0088,-0.007 0.01721,-0.01563 z m 0.08789,-0.08092 c 0,-0.0011 -0.01582,0.01249 -0.03516,0.03014 -0.01934,0.01765 -0.03516,0.03298 -0.03516,0.03405 0,0.0011 0.01582,-0.01249 0.03516,-0.03014 0.01934,-0.01765 0.03516,-0.03297 0.03516,-0.03405 z m 0.02539,-0.02064 c 0.01058,-0.01074 0.01836,-0.01953 0.01728,-0.01953 -0.0011,0 -0.01061,0.0088 -0.02119,0.01953 -0.01058,0.01074 -0.01836,0.01953 -0.01728,0.01953 0.0011,0 0.01061,-0.0088 0.02119,-0.01953 z m 0.04297,-0.03906 c 0.01058,-0.01074 0.01836,-0.01953 0.01729,-0.01953 -0.0011,0 -0.01061,0.0088 -0.02119,0.01953 -0.01058,0.01074 -0.01836,0.01953 -0.01728,0.01953 0.0011,0 0.01061,-0.0088 0.02119,-0.01953 z m 0.04297,-0.03906 c 0.01058,-0.01074 0.01836,-0.01953 0.01729,-0.01953 -0.0011,0 -0.01061,0.0088 -0.02119,0.01953 -0.01058,0.01074 -0.01836,0.01953 -0.01728,0.01953 0.0011,0 0.01061,-0.0088 0.02119,-0.01953 z m 0.05078,-0.04687 c 0.01058,-0.01074 0.01836,-0.01953 0.01729,-0.01953 -0.0011,0 -0.01061,0.0088 -0.02119,0.01953 -0.01058,0.01074 -0.01836,0.01953 -0.01728,0.01953 0.0011,0 0.01061,-0.0088 0.02119,-0.01953 z m 0.117188,-0.109375 c 0.01058,-0.01074 0.01836,-0.01953 0.01728,-0.01953 -0.0011,0 -0.01061,0.0088 -0.02119,0.01953 -0.01058,0.01074 -0.01836,0.01953 -0.01729,0.01953 0.0011,0 0.01061,-0.0088 0.02119,-0.01953 z m 0.07227,-0.06836 c 0.01167,-0.01182 0.02034,-0.02148 0.01926,-0.02148 -0.0011,0 -0.0115,0.0097 -0.02317,0.02148 -0.01167,0.01182 -0.02034,0.02148 -0.01926,0.02148 0.0011,0 0.0115,-0.0097 0.02317,-0.02148 z m 0.08398,-0.08008 c 0.01492,-0.01504 0.02625,-0.02734 0.02518,-0.02734 -0.0011,0 -0.01416,0.0123 -0.02909,0.02734 -0.01492,0.01504 -0.02626,0.02734 -0.02518,0.02734 0.0011,0 0.01416,-0.0123 0.02909,-0.02734 z"
       id="path3831"
       inkscape:connector-curvature="0"
       inkscape:export-xdpi="490.08881"
       inkscape:export-ydpi="490.08881"
       transform="matrix(0.26458333,0,0,0.26458333,-83.910713,130.04791)" />
    <path
       style="fill:#07096e;fill-opacity:1;stroke:#07096e;stroke-width:0.0011811;stroke-linecap:round;stroke-linejoin:round;stroke-miterlimit:4;stroke-dasharray:none;stroke-opacity:1"
       d="m 55.408753,32.725786 c 0.009,-0.01459 0.281001,-0.238214 0.390648,-0.321187 0.343704,-0.260093 0.635269,-0.420279 1.204566,-0.661791 0.206238,-0.08749 0.213157,-0.09022 0.217573,-0.0858 0.002,0.002 -0.04116,0.02243 -0.09595,0.04537 -0.527294,0.220714 -1.097247,0.557013 -1.597425,0.942554 -0.109499,0.0844 -0.130308,0.09849 -0.119409,0.08086 z"
       id="path3833"
       inkscape:connector-curvature="0"
       inkscape:export-xdpi="490.08881"
       inkscape:export-ydpi="490.08881"
       transform="matrix(0.26458333,0,0,0.26458333,-83.910713,130.04791)" />
    <path
       style="fill:#07096e;fill-opacity:1;stroke:#07096e;stroke-width:0.00059055;stroke-linecap:round;stroke-linejoin:round;stroke-miterlimit:4;stroke-dasharray:none;stroke-opacity:1"
       d="m 55.428308,32.710047 c 0.05397,-0.04914 0.280003,-0.233544 0.371094,-0.302744 0.168781,-0.128219 0.332521,-0.235295 0.515625,-0.337187 0.08003,-0.04454 0.302076,-0.154511 0.414062,-0.20508 0.16754,-0.07565 0.456173,-0.198194 0.462142,-0.196204 0.0022,7.41e-4 -0.0257,0.01423 -0.06206,0.02997 -0.182066,0.07884 -0.250461,0.110657 -0.400084,0.186083 -0.26676,0.134476 -0.506361,0.2746 -0.771484,0.451179 -0.172143,0.114652 -0.251377,0.171616 -0.484799,0.348537 -0.05659,0.04289 -0.07559,0.05376 -0.0445,0.02545 z"
       id="path3835"
       inkscape:connector-curvature="0"
       inkscape:export-xdpi="490.08881"
       inkscape:export-ydpi="490.08881"
       transform="matrix(0.26458333,0,0,0.26458333,-83.910713,130.04791)" />
    <path
       style="fill:#07096e;fill-opacity:1;stroke:#07096e;stroke-width:0.00059055;stroke-linecap:round;stroke-linejoin:round;stroke-miterlimit:4;stroke-dasharray:none;stroke-opacity:1"
       d="m 55.430261,32.708063 c 0.05457,-0.05029 0.296733,-0.246779 0.394531,-0.320119 0.316524,-0.237365 0.606814,-0.397614 1.117188,-0.616724 0.164021,-0.07042 0.243811,-0.103471 0.249311,-0.103284 0.0076,2.6e-4 -0.01177,0.0095 -0.105239,0.05009 -0.388983,0.168921 -0.741347,0.361686 -1.118681,0.611988 -0.145986,0.09684 -0.234003,0.159379 -0.404679,0.287544 -0.0797,0.05985 -0.1465,0.108749 -0.148438,0.108664 -0.0019,-8.5e-5 0.0053,-0.0083 0.01601,-0.01816 z"
       id="path3837"
       inkscape:connector-curvature="0"
       inkscape:export-xdpi="490.08881"
       inkscape:export-ydpi="490.08881"
       transform="matrix(0.26458333,0,0,0.26458333,-83.910713,130.04791)" />
    <path
       style="fill:#07096e;fill-opacity:1;stroke:#07096e;stroke-width:0.00059055;stroke-linecap:round;stroke-linejoin:round;stroke-miterlimit:4;stroke-dasharray:none;stroke-opacity:1"
       d=""
       id="path3839"
       inkscape:connector-curvature="0"
       transform="matrix(0.26458333,0,0,0.26458333,-83.910713,130.04791)" />
    <path
       style="fill:#07096e;fill-opacity:1;stroke:#07096e;stroke-width:0.00059055;stroke-linecap:round;stroke-linejoin:round;stroke-miterlimit:4;stroke-dasharray:none;stroke-opacity:1"
       d=""
       id="path3841"
       inkscape:connector-curvature="0"
       transform="matrix(0.26458333,0,0,0.26458333,-83.910713,130.04791)" />
    <path
       style="fill:#07096e;fill-opacity:1;stroke:#07096e;stroke-width:0.00059055;stroke-linecap:round;stroke-linejoin:round;stroke-miterlimit:4;stroke-dasharray:none;stroke-opacity:1"
       d=""
       id="path3843"
       inkscape:connector-curvature="0"
       transform="matrix(0.26458333,0,0,0.26458333,-83.910713,130.04791)" />
    <path
       style="fill:#07096e;fill-opacity:1;stroke:#07096e;stroke-width:0.00059055;stroke-linecap:round;stroke-linejoin:round;stroke-miterlimit:4;stroke-dasharray:none;stroke-opacity:1"
       d=""
       id="path3845"
       inkscape:connector-curvature="0"
       transform="matrix(0.26458333,0,0,0.26458333,-83.910713,130.04791)" />
    <path
       style="fill:#07096e;fill-opacity:1;stroke:#07096e;stroke-width:0.00059055;stroke-linecap:round;stroke-linejoin:round;stroke-miterlimit:4;stroke-dasharray:none;stroke-opacity:1"
       d=""
       id="path3847"
       inkscape:connector-curvature="0"
       transform="matrix(0.26458333,0,0,0.26458333,-83.910713,130.04791)" />
    <path
       style="fill:#07096e;fill-opacity:1;stroke:#07096e;stroke-width:0.00059055;stroke-linecap:round;stroke-linejoin:round;stroke-miterlimit:4;stroke-dasharray:none;stroke-opacity:1"
       d=""
       id="path3849"
       inkscape:connector-curvature="0"
       transform="matrix(0.26458333,0,0,0.26458333,-83.910713,130.04791)" />
    <path
       style="fill:#07096e;fill-opacity:1;stroke:#07096e;stroke-width:0.00059055;stroke-linecap:round;stroke-linejoin:round;stroke-miterlimit:4;stroke-dasharray:none;stroke-opacity:1"
       d=""
       id="path3851"
       inkscape:connector-curvature="0"
       transform="matrix(0.26458333,0,0,0.26458333,-83.910713,130.04791)" />
    <path
       style="fill:#07096e;fill-opacity:1;stroke:#07096e;stroke-width:0.00059055;stroke-linecap:round;stroke-linejoin:round;stroke-miterlimit:4;stroke-dasharray:none;stroke-opacity:1"
       d=""
       id="path3853"
       inkscape:connector-curvature="0"
       transform="matrix(0.26458333,0,0,0.26458333,-83.910713,130.04791)" />
    <path
       style="fill:#07096e;fill-opacity:1;stroke:#07096e;stroke-width:0.00059055;stroke-linecap:round;stroke-linejoin:round;stroke-miterlimit:4;stroke-dasharray:none;stroke-opacity:1"
       d=""
       id="path3855"
       inkscape:connector-curvature="0"
       transform="matrix(0.26458333,0,0,0.26458333,-83.910713,130.04791)" />
    <path
       style="fill:#07096e;fill-opacity:1;stroke:#07096e;stroke-width:0.00059055;stroke-linecap:round;stroke-linejoin:round;stroke-miterlimit:4;stroke-dasharray:none;stroke-opacity:1"
       d=""
       id="path3857"
       inkscape:connector-curvature="0"
       transform="matrix(0.26458333,0,0,0.26458333,-83.910713,130.04791)" />
    <path
       style="fill:#07096e;fill-opacity:1;stroke:#07096e;stroke-width:0.00059055;stroke-linecap:round;stroke-linejoin:round;stroke-miterlimit:4;stroke-dasharray:none;stroke-opacity:1"
       d=""
       id="path3859"
       inkscape:connector-curvature="0"
       transform="matrix(0.26458333,0,0,0.26458333,-83.910713,130.04791)" />
    <path
       style="fill:#07096e;fill-opacity:1;stroke:#07096e;stroke-width:0.00059055;stroke-linecap:round;stroke-linejoin:round;stroke-miterlimit:4;stroke-dasharray:none;stroke-opacity:1"
       d=""
       id="path3861"
       inkscape:connector-curvature="0"
       transform="matrix(0.26458333,0,0,0.26458333,-83.910713,130.04791)" />
    <path
       style="fill:#07096e;fill-opacity:1;stroke:#07096e;stroke-width:0.00059055;stroke-linecap:round;stroke-linejoin:round;stroke-miterlimit:4;stroke-dasharray:none;stroke-opacity:1"
       d=""
       id="path3863"
       inkscape:connector-curvature="0"
       transform="matrix(0.26458333,0,0,0.26458333,-83.910713,130.04791)" />
    <path
       style="fill:#07096e;fill-opacity:1;stroke:#07096e;stroke-width:0.00059055;stroke-linecap:round;stroke-linejoin:round;stroke-miterlimit:4;stroke-dasharray:none;stroke-opacity:1"
       d=""
       id="path3865"
       inkscape:connector-curvature="0"
       transform="matrix(0.26458333,0,0,0.26458333,-83.910713,130.04791)" />
    <path
       style="fill:#07096e;fill-opacity:1;stroke:#07096e;stroke-width:0.00059055;stroke-linecap:round;stroke-linejoin:round;stroke-miterlimit:4;stroke-dasharray:none;stroke-opacity:1"
       d=""
       id="path3867"
       inkscape:connector-curvature="0"
       transform="matrix(0.26458333,0,0,0.26458333,-83.910713,130.04791)" />
    <path
       style="fill:#07096e;fill-opacity:1;stroke:#07096e;stroke-width:0.00059055;stroke-linecap:round;stroke-linejoin:round;stroke-miterlimit:4;stroke-dasharray:none;stroke-opacity:1"
       d=""
       id="path3869"
       inkscape:connector-curvature="0"
       transform="matrix(0.26458333,0,0,0.26458333,-83.910713,130.04791)" />
    <path
       style="fill:#07096e;fill-opacity:1;stroke:#07096e;stroke-width:0.00059055;stroke-linecap:round;stroke-linejoin:round;stroke-miterlimit:4;stroke-dasharray:none;stroke-opacity:1"
       d=""
       id="path3871"
       inkscape:connector-curvature="0"
       transform="matrix(0.26458333,0,0,0.26458333,-83.910713,130.04791)" />
    <path
       style="fill:#07096e;fill-opacity:1;stroke:#07096e;stroke-width:0.00059055;stroke-linecap:round;stroke-linejoin:round;stroke-miterlimit:4;stroke-dasharray:none;stroke-opacity:1"
       d=""
       id="path3873"
       inkscape:connector-curvature="0"
       transform="matrix(0.26458333,0,0,0.26458333,-83.910713,130.04791)" />
    <path
       style="fill:#07096e;fill-opacity:1;stroke:#07096e;stroke-width:0.00059055;stroke-linecap:round;stroke-linejoin:round;stroke-miterlimit:4;stroke-dasharray:none;stroke-opacity:1"
       d=""
       id="path3875"
       inkscape:connector-curvature="0"
       transform="matrix(0.26458333,0,0,0.26458333,-83.910713,130.04791)" />
    <path
       style="fill:#07096e;fill-opacity:1;stroke:#07096e;stroke-width:0.00059055;stroke-linecap:round;stroke-linejoin:round;stroke-miterlimit:4;stroke-dasharray:none;stroke-opacity:1"
       d="m 55.254588,32.85942 c 0.0042,-0.0042 0.03921,-0.0356 0.07771,-0.06984 0.05379,-0.04784 0.07113,-0.06124 0.07487,-0.05785 0.0027,0.0024 0.0037,0.0055 0.0023,0.0069 -0.01291,0.01219 -0.157356,0.128401 -0.159602,0.128401 -0.0016,0 5.26e-4,-0.0034 0.0048,-0.0076 z"
       id="path3879"
       inkscape:connector-curvature="0"
       inkscape:export-xdpi="490.08881"
       inkscape:export-ydpi="490.08881"
       transform="matrix(0.26458333,0,0,0.26458333,-83.910713,130.04791)" />
    <path
       style="fill:#07096e;fill-opacity:1;stroke:#07096e;stroke-width:0.00059055;stroke-linecap:round;stroke-linejoin:round;stroke-miterlimit:4;stroke-dasharray:none;stroke-opacity:1"
       d="m 62.820689,32.832332 c -0.221253,-0.159041 -0.637426,-0.435877 -0.93656,-0.622992 -0.606608,-0.379449 -1.140583,-0.667078 -1.451459,-0.781839 -0.02793,-0.01031 -0.04841,-0.01881 -0.04552,-0.01888 0.0029,-7.5e-5 0.03334,0.0078 0.06765,0.01751 0.280677,0.07936 0.574541,0.214505 0.917323,0.42187 0.156106,0.09444 0.293044,0.183443 0.585938,0.380849 0.11709,0.07892 0.267383,0.179187 0.333984,0.222823 0.188433,0.123458 0.308252,0.207297 0.484375,0.338924 0.09002,0.06727 0.09977,0.07506 0.09361,0.07471 -0.0021,-1.17e-4 -0.02428,-0.01495 -0.04934,-0.03297 z"
       id="path3881"
       inkscape:connector-curvature="0"
       inkscape:export-xdpi="490.08881"
       inkscape:export-ydpi="490.08881"
       transform="matrix(0.26458333,0,0,0.26458333,-83.910713,130.04791)" />
    <path
       style="fill:#07096e;fill-opacity:1;stroke:#07096e;stroke-width:0.0023622;stroke-linecap:round;stroke-linejoin:round;stroke-miterlimit:4;stroke-dasharray:none;stroke-opacity:1"
       d="m 64.539212,39.536293 c -3.5e-4,-0.01454 0.02432,-0.109462 0.05482,-0.210937 0.24571,-0.817466 0.621913,-1.473242 1.204718,-2.099994 0.35403,-0.380725 0.691127,-0.677373 1.497638,-1.317931 0.60184,-0.478001 0.595742,-0.472918 0.582814,-0.485846 -0.0125,-0.0125 -0.580422,0.09411 -0.762501,0.143136 -0.662931,0.178487 -1.429754,0.654177 -2.413626,1.497264 -0.262826,0.225217 -0.442753,0.387592 -0.943434,0.851396 -0.209273,0.193861 -0.38857,0.354861 -0.398437,0.35778 -0.0099,0.0029 0.115653,-0.12349 0.278934,-0.280908 0.163282,-0.157418 0.490328,-0.476212 0.72677,-0.708431 0.236442,-0.23222 0.523451,-0.499561 0.637798,-0.594093 0.966785,-0.799248 1.986905,-1.251474 3.063013,-1.357854 l 0.08383,-0.0083 -0.161582,0.111026 c -1.197023,0.822497 -2.260796,1.800512 -2.723955,2.504358 -0.199233,0.302766 -0.408471,0.757917 -0.643225,1.399195 -0.04562,0.124609 -0.08322,0.214666 -0.08357,0.200126 z"
       id="path3883"
       inkscape:connector-curvature="0"
       inkscape:export-xdpi="490.08881"
       inkscape:export-ydpi="490.08881"
       transform="matrix(0.26458333,0,0,0.26458333,-83.910713,130.04791)" />
    <path
       style="fill:#07096e;fill-opacity:1;stroke:#07096e;stroke-width:0.00059055;stroke-linecap:round;stroke-linejoin:round;stroke-miterlimit:4;stroke-dasharray:none;stroke-opacity:1"
       d="m 52.850268,47.107143 c -0.636428,-0.01808 -1.18494,-0.0793 -1.785156,-0.19925 -0.391831,-0.07831 -0.846728,-0.197391 -1.22461,-0.320583 -0.803957,-0.262096 -1.605855,-0.831267 -2.197643,-1.559842 -0.24573,-0.302529 -0.464973,-0.652929 -0.587014,-0.938186 -0.161413,-0.377282 -0.28783,-0.906768 -0.363564,-1.522746 -0.0054,-0.04404 -0.01078,-0.08667 -0.01191,-0.09473 l -0.0021,-0.01465 h 0.04106 c 0.02258,0 0.04106,4.73e-4 0.04106,0.0011 0,5.78e-4 0.0071,0.05616 0.01569,0.123508 0.105845,0.825956 0.290804,1.498407 0.513696,1.867628 0.267922,0.443815 0.829209,1.026199 1.406059,1.458909 0.208618,0.156489 0.383794,0.267753 0.568458,0.361058 0.792752,0.400551 1.742364,0.624277 3.035157,0.715076 0.411837,0.02893 0.778275,0.04295 1.330078,0.05091 0.397306,0.0057 0.847502,0.01521 0.844765,0.01778 -5.58e-4,5.26e-4 -0.04145,0.0029 -0.09086,0.0053 -0.04941,0.0024 -0.197949,0.01044 -0.330078,0.01785 -0.473842,0.02657 -0.553753,0.02937 -0.88086,0.03087 -0.152539,7.03e-4 -0.297558,7.04e-4 -0.322265,2e-6 z"
       id="path3885"
       inkscape:connector-curvature="0"
       inkscape:export-xdpi="490.08881"
       inkscape:export-ydpi="490.08881"
       transform="matrix(0.26458333,0,0,0.26458333,-83.910713,130.04791)" />
    <path
       style="fill:#07096e;fill-opacity:1;stroke:#07096e;stroke-width:0.00167033;stroke-linecap:round;stroke-linejoin:round;stroke-miterlimit:4;stroke-dasharray:none;stroke-opacity:1"
       d="m 46.679696,42.424176 c -0.01696,-0.08355 -0.05498,-0.582695 -0.07385,-0.96951 -0.02399,-0.491795 -0.0096,-1.874709 0.02163,-2.077955 l 0.0069,-0.04502 0.182301,0.198509 c 0.423812,0.46149 1.097015,1.117982 1.431958,1.396411 0.06312,0.05247 0.112617,0.09755 0.109993,0.10017 -0.0063,0.0063 -0.230327,-0.165033 -0.409475,-0.313281 -0.34879,-0.288629 -0.557151,-0.489665 -0.943763,-0.910587 -0.347892,-0.378767 -0.318777,-0.349443 -0.332919,-0.335301 -0.0085,0.0085 -0.0087,0.314055 -7.22e-4,1.071307 0.01137,1.075097 0.01789,1.246641 0.06555,1.725057 l 0.01899,0.190587 h -0.03522 c -0.02956,0 -0.03621,-0.0049 -0.04138,-0.03038 z"
       id="path3887"
       inkscape:connector-curvature="0"
       inkscape:export-xdpi="490.08881"
       inkscape:export-ydpi="490.08881"
       transform="matrix(0.26458333,0,0,0.26458333,-83.910713,130.04791)" />
    <path
       style="fill:#07096e;fill-opacity:1;stroke:#07096e;stroke-width:0.00059055;stroke-linecap:round;stroke-linejoin:round;stroke-miterlimit:4;stroke-dasharray:none;stroke-opacity:1"
       d="m 53.143875,42.669517 c -0.481419,-0.02377 -0.870426,-0.06079 -1.270056,-0.120848 -0.666175,-0.100122 -1.263577,-0.258817 -1.77096,-0.470442 -0.497313,-0.207425 -1.094396,-0.560612 -1.69623,-1.003356 -0.06247,-0.04596 -0.08148,-0.06228 -0.05768,-0.04954 0.01325,0.0071 0.01423,0.0011 0.0019,-0.01176 -0.0185,-0.01931 -0.0077,-0.01332 0.0304,0.01689 0.08694,0.0689 0.18972,0.142667 0.371979,0.26697 0.773765,0.527718 1.451695,0.855277 2.103516,1.016366 0.257513,0.06364 0.62388,0.137319 0.955078,0.192071 0.474926,0.07851 0.936957,0.130782 1.445312,0.163513 l 0.05078,0.0033 -0.05078,-1.9e-5 c -0.02793,-1.2e-5 -0.07891,-0.0014 -0.113281,-0.0031 z"
       id="path3889"
       inkscape:connector-curvature="0"
       inkscape:export-xdpi="490.08881"
       inkscape:export-ydpi="490.08881"
       transform="matrix(0.26458333,0,0,0.26458333,-83.910713,130.04791)" />
    <path
       style="fill:#07096e;fill-opacity:1;stroke:#07096e;stroke-width:0.00167033;stroke-linecap:round;stroke-linejoin:round;stroke-miterlimit:4;stroke-dasharray:none;stroke-opacity:1"
       d="m 56.364575,53.989895 c -0.01651,-0.01299 -0.04967,-0.06423 -0.07368,-0.113872 -0.176429,-0.364781 -0.214154,-1.306396 -0.08767,-2.188202 0.05635,-0.392876 0.148383,-0.78531 0.312512,-1.332627 0.05194,-0.173186 0.111725,-0.377032 0.132867,-0.45299 0.02114,-0.07596 0.03869,-0.128164 0.039,-0.11601 9.69e-4,0.03804 -0.07165,0.341779 -0.152283,0.636955 -0.242992,0.889524 -0.366734,1.770922 -0.352349,2.50972 0.0061,0.315221 0.02415,0.45791 0.08049,0.637675 0.0357,0.11391 0.09795,0.236114 0.135189,0.265409 0.04079,0.03209 0.07609,0.02689 0.188341,-0.02775 0.549498,-0.267447 2.227706,-1.591591 3.271867,-2.581577 1.466519,-1.390432 2.659764,-3.002259 3.426089,-4.627938 0.677365,-1.436961 0.785882,-1.95343 0.905359,-4.308932 0.01248,-0.246106 0.02437,-0.45741 0.02641,-0.469563 0.0083,-0.04957 0.0057,0.515704 -0.0044,0.94465 -0.023,0.975206 -0.09885,1.614042 -0.271542,2.287049 -0.209504,0.816451 -0.509958,1.502105 -1.118382,2.552213 -1.011203,1.745286 -2.149279,3.101415 -3.678368,4.383139 -0.632252,0.529971 -1.178647,0.939242 -2.545096,1.906375 -0.08262,0.05848 -0.162382,0.109371 -0.177255,0.113104 -0.01858,0.0047 -0.03643,-5.96e-4 -0.05706,-0.01683 z"
       id="path3891"
       inkscape:connector-curvature="0"
       inkscape:export-xdpi="490.08881"
       inkscape:export-ydpi="490.08881"
       transform="matrix(0.26458333,0,0,0.26458333,-83.910713,130.04791)" />
    <path
       style="fill:#07096e;fill-opacity:1;stroke:#07096e;stroke-width:0.07559055;stroke-linecap:round;stroke-linejoin:round;stroke-miterlimit:4;stroke-dasharray:none;stroke-opacity:1"
       d="m 64.241423,80.649823 c -0.160308,-0.0038 -0.459041,-0.01906 -0.59375,-0.03028 -0.143418,-0.01195 -0.34776,-0.03969 -0.365507,-0.04962 -0.01433,-0.008 0.09536,-0.143329 0.223289,-0.275439 0.153531,-0.158544 0.336323,-0.322398 0.704718,-0.631704 0.274878,-0.23079 0.395653,-0.334652 0.553618,-0.476091 0.165087,-0.147815 0.196382,-0.174785 0.196382,-0.169242 0,0.0024 -0.0269,0.05275 -0.05978,0.111976 -0.09085,0.163646 -0.223249,0.429003 -0.275516,0.552178 -0.06967,0.164181 -0.09523,0.247361 -0.100072,0.325641 -0.0053,0.08595 0.005,0.108913 0.08385,0.186896 0.176346,0.174357 0.453588,0.305042 0.869256,0.409746 l 0.162276,0.04088 -0.17721,0.0052 c -0.16118,0.0047 -1.023808,0.0046 -1.22156,-9.5e-5 z"
       id="path3951"
       inkscape:connector-curvature="0"
       inkscape:export-xdpi="490.08881"
       inkscape:export-ydpi="490.08881"
       transform="matrix(0.26458333,0,0,0.26458333,-83.910713,130.04791)" />
    <text
       xml:space="preserve"
       style="font-style:normal;font-weight:normal;font-size:2.11666656px;line-height:1.25;font-family:sans-serif;letter-spacing:0px;word-spacing:0px;fill:#000000;fill-opacity:1;stroke:none;stroke-width:0.26458332"
       x="-82.455505"
       y="160.14426"
       id="text3955"><tspan
         sodipodi:role="line"
         id="tspan3953"
         x="-82.455505"
         y="162.01701"
         style="stroke-width:0.26458332" /></text>
    <text
       xml:space="preserve"
       style="font-style:normal;font-weight:normal;font-size:2.11666656px;line-height:1.25;font-family:sans-serif;letter-spacing:0px;word-spacing:0px;fill:#000000;fill-opacity:1;stroke:none;stroke-width:0.26458332"
       x="-82.720085"
       y="159.94583"
       id="text3959"><tspan
         sodipodi:role="line"
         id="tspan3957"
         x="-82.720085"
         y="161.81859"
         style="stroke-width:0.26458332" /></text>
    <text
       xml:space="preserve"
       style="font-style:normal;font-weight:normal;font-size:1.47851241px;line-height:1.25;font-family:sans-serif;letter-spacing:0px;word-spacing:0px;fill:#000000;fill-opacity:1;stroke:none;stroke-width:0.49088585;stroke-miterlimit:4;stroke-dasharray:none"
       x="-88.171959"
       y="150.45406"
       id="text3963"
       transform="scale(0.93934905,1.064567)"
       inkscape:export-xdpi="490.08881"
       inkscape:export-ydpi="490.08881"><tspan
         sodipodi:role="line"
         id="tspan3961"
         x="-88.171959"
         y="150.45406"
         style="font-style:normal;font-variant:normal;font-weight:normal;font-stretch:normal;font-size:1.84696126px;line-height:126.24998474;font-family:'Abyssinica SIL';-inkscape-font-specification:'Abyssinica SIL';letter-spacing:0.01322917px;fill:#6e72c9;fill-opacity:1;stroke-width:0.49088585;stroke-miterlimit:4;stroke-dasharray:none">LA MAS FRESCA TECNOLOGA</tspan></text>
  </g>
</svg>
